<svg id="svg" version="1.1" xmlns="http://www.w3.org/2000/svg" xmlns:xlink="http://www.w3.org/1999/xlink" width="400" height="147.67932489451476" viewBox="0, 0, 400,147.67932489451476"><g id="svgg"><path id="path0" d="M57.667 3.342 C 52.854 3.402,43.479 3.464,36.833 3.480 C 22.855 3.513,22.590 3.542,21.752 5.163 C 21.506 5.638,21.333 91.889,21.578 92.133 C 21.619 92.175,22.162 91.834,22.785 91.377 C 23.407 90.920,24.254 90.331,24.667 90.069 C 25.079 89.807,25.717 89.356,26.083 89.067 C 26.450 88.778,26.975 88.418,27.250 88.266 C 27.525 88.115,28.725 87.399,29.917 86.676 C 31.108 85.952,33.058 84.820,34.250 84.159 C 35.442 83.498,36.942 82.656,37.583 82.287 C 38.556 81.728,42.064 79.899,45.333 78.246 C 46.218 77.799,52.331 74.890,53.698 74.266 C 54.219 74.028,54.726 73.833,54.823 73.833 C 54.920 73.833,55.000 73.762,55.000 73.675 C 55.000 73.451,56.760 72.638,61.167 70.824 C 62.313 70.352,63.553 69.830,63.922 69.662 C 64.292 69.495,64.817 69.304,65.089 69.239 C 65.361 69.174,65.658 69.066,65.750 68.999 C 65.842 68.932,66.367 68.724,66.917 68.535 C 67.467 68.347,68.292 68.031,68.750 67.832 C 69.208 67.633,70.821 67.052,72.333 66.541 C 73.846 66.030,75.608 65.431,76.250 65.209 C 77.917 64.634,82.306 63.413,85.417 62.659 C 86.883 62.304,88.421 61.929,88.833 61.826 C 89.687 61.613,92.226 61.125,94.917 60.657 C 95.925 60.482,97.091 60.259,97.508 60.162 C 99.828 59.624,110.394 58.423,115.161 58.156 C 118.585 57.964,118.824 57.919,117.302 57.756 C 114.424 57.447,113.690 57.186,114.120 56.623 C 114.382 56.280,115.831 52.499,116.754 49.750 C 117.533 47.429,117.936 45.834,118.251 43.833 C 118.387 42.962,118.666 41.425,118.871 40.417 C 119.292 38.337,119.415 30.508,119.050 29.000 C 118.951 28.587,118.676 27.387,118.441 26.333 C 117.570 22.436,116.110 19.569,113.179 16.000 C 112.539 15.221,111.731 14.225,111.383 13.786 C 109.262 11.114,102.453 6.797,97.833 5.196 C 93.465 3.682,92.730 3.593,82.429 3.337 C 75.311 3.159,72.162 3.160,57.667 3.342 M153.917 22.783 C 151.384 23.012,144.737 24.379,143.961 24.831 C 143.801 24.924,143.594 25.000,143.499 25.000 C 142.857 25.000,137.296 27.529,136.583 28.145 C 136.400 28.304,135.938 28.642,135.556 28.896 C 133.724 30.117,131.313 32.792,130.655 34.333 C 130.557 34.561,130.307 34.974,130.099 35.249 C 126.473 40.050,124.294 45.976,124.533 50.387 L 124.583 51.323 127.333 49.073 C 128.846 47.836,130.196 46.694,130.334 46.537 C 130.629 46.199,134.007 43.412,134.795 42.856 L 135.341 42.472 135.666 42.861 C 136.388 43.726,136.227 43.971,132.126 48.259 C 131.595 48.813,131.038 49.451,130.886 49.675 C 130.643 50.037,128.837 52.130,127.921 53.112 C 127.439 53.629,126.833 54.449,126.833 54.585 C 126.833 54.732,127.750 54.625,130.250 54.185 C 131.350 53.992,132.301 53.833,132.363 53.833 C 132.425 53.833,132.575 53.734,132.696 53.613 C 132.818 53.493,133.292 53.313,133.750 53.214 C 134.957 52.953,137.048 52.333,137.246 52.177 C 137.340 52.104,137.717 51.954,138.083 51.844 C 140.500 51.121,143.030 49.597,144.880 47.750 C 146.176 46.457,148.667 42.997,148.667 42.491 C 148.667 42.406,149.120 41.455,149.675 40.377 C 150.229 39.299,150.946 37.817,151.268 37.083 C 151.590 36.350,151.991 35.450,152.158 35.083 C 152.326 34.717,152.552 34.117,152.660 33.750 C 152.768 33.383,152.919 32.933,152.995 32.750 C 153.072 32.567,153.356 31.742,153.626 30.917 C 153.897 30.092,154.254 29.004,154.421 28.500 C 154.748 27.510,155.006 22.641,154.729 22.695 C 154.649 22.710,154.283 22.750,153.917 22.783 M85.551 24.415 C 93.297 25.610,97.646 33.291,96.006 42.881 C 94.987 48.843,92.726 51.882,88.481 53.001 C 88.079 53.107,87.504 53.336,87.203 53.511 C 85.490 54.505,84.269 54.569,65.750 54.632 C 47.006 54.696,47.392 54.715,46.389 53.711 C 45.108 52.430,45.174 53.192,45.170 39.739 C 45.166 25.704,45.229 25.090,46.739 24.298 C 47.390 23.957,83.284 24.066,85.551 24.415 M105.083 64.161 C 102.634 64.905,100.885 65.566,97.391 67.068 C 93.842 68.593,84.526 73.199,84.249 73.565 C 84.156 73.687,83.669 73.994,83.165 74.247 C 82.405 74.629,80.333 75.837,80.333 75.899 C 80.333 75.909,81.477 75.917,82.875 75.917 C 90.818 75.918,96.494 80.339,98.506 88.092 C 101.364 99.106,96.135 107.861,84.917 110.845 C 82.260 111.552,48.553 112.131,47.646 111.486 C 45.062 109.645,44.505 103.036,46.624 99.347 L 47.047 98.611 46.502 98.999 C 46.202 99.212,45.272 100.034,44.437 100.825 C 43.601 101.615,42.092 103.015,41.083 103.934 C 38.483 106.305,32.620 112.190,29.000 116.063 C 27.304 117.877,24.903 120.424,23.665 121.722 C 22.426 123.021,21.211 124.309,20.964 124.585 L 20.515 125.086 20.745 128.808 C 20.871 130.855,21.007 132.563,21.047 132.603 C 21.450 133.005,69.397 133.228,79.000 132.873 C 87.796 132.547,93.501 131.843,98.083 130.520 C 99.121 130.220,99.849 129.967,102.664 128.929 C 105.481 127.891,110.320 124.972,112.328 123.100 C 114.108 121.440,115.939 119.572,116.590 118.750 C 116.953 118.292,117.287 117.879,117.333 117.833 C 117.532 117.634,118.167 116.670,118.167 116.566 C 118.167 116.504,118.453 115.995,118.803 115.435 C 120.737 112.344,122.280 108.682,123.553 104.167 C 124.539 100.672,124.896 93.113,124.277 88.853 C 123.748 85.211,121.387 78.614,119.274 74.875 C 118.966 74.331,118.574 73.517,118.403 73.067 C 117.343 70.277,113.133 65.719,110.565 64.581 C 108.392 63.618,107.178 63.525,105.083 64.161 M143.250 65.937 C 140.613 66.618,138.939 68.267,138.432 70.684 C 138.177 71.895,138.095 71.920,137.084 71.094 C 136.418 70.550,134.071 69.000,133.913 69.000 C 133.867 69.000,133.509 68.849,133.117 68.665 C 131.585 67.945,129.398 67.423,127.375 67.295 C 126.076 67.212,126.008 67.012,128.181 69.667 C 129.194 70.904,130.126 72.044,130.253 72.201 C 130.380 72.357,130.610 72.732,130.765 73.034 C 130.919 73.336,131.338 73.952,131.694 74.403 C 132.421 75.321,132.427 75.413,131.790 75.800 L 131.340 76.073 130.298 74.912 C 129.172 73.656,128.009 72.500,126.727 71.365 C 126.282 70.969,125.555 70.294,125.112 69.865 L 124.307 69.083 124.422 70.833 C 124.546 72.709,124.632 73.223,125.149 75.167 C 126.320 79.565,127.616 81.617,130.857 84.208 C 131.766 84.935,137.590 87.929,138.875 88.331 L 139.500 88.526 139.500 109.596 L 139.500 130.667 144.251 130.667 L 149.001 130.667 148.959 107.542 L 148.917 84.417 147.093 84.369 C 145.031 84.315,144.918 84.263,144.763 83.294 C 144.643 82.542,143.583 79.364,143.222 78.671 C 142.890 78.036,142.889 78.036,144.542 77.974 C 150.886 77.736,152.628 69.226,146.893 66.489 C 145.841 65.986,144.088 65.721,143.250 65.937 M320.333 78.583 L 320.333 84.333 317.583 84.333 L 314.833 84.333 314.833 88.250 L 314.833 92.167 317.575 92.167 L 320.316 92.167 320.373 106.542 L 320.430 120.917 320.886 122.544 C 322.659 128.874,326.130 130.665,336.625 130.666 L 341.333 130.667 341.333 126.763 L 341.333 122.859 337.208 122.804 C 332.491 122.742,331.703 122.546,330.780 121.207 C 330.024 120.110,330.008 119.788,330.004 105.625 L 330.000 92.167 335.667 92.167 L 341.333 92.167 341.333 88.250 L 341.333 84.333 335.667 84.333 L 330.000 84.333 330.000 78.583 L 330.000 72.833 325.167 72.833 L 320.333 72.833 320.333 78.583 M181.565 83.928 C 178.088 84.512,174.678 86.198,172.374 88.471 C 171.800 89.037,171.296 89.500,171.253 89.500 C 171.210 89.500,171.155 88.356,171.129 86.958 L 171.083 84.417 166.375 84.372 L 161.667 84.328 161.667 107.497 L 161.667 130.667 166.407 130.667 L 171.148 130.667 171.211 116.292 C 171.283 99.832,171.259 100.103,172.954 97.064 C 176.817 90.141,189.010 90.130,192.869 97.046 C 194.576 100.106,194.550 99.819,194.622 116.292 L 194.685 130.667 199.438 130.667 L 204.190 130.667 204.123 115.458 L 204.057 100.250 203.620 98.292 C 201.265 87.745,192.565 82.079,181.565 83.928 M231.500 83.902 C 230.721 84.024,229.602 84.283,229.014 84.478 C 228.426 84.674,227.878 84.833,227.797 84.833 C 227.308 84.833,224.341 86.368,222.840 87.397 C 210.016 96.189,210.154 118.745,223.087 127.759 C 229.239 132.046,237.815 132.668,244.560 129.314 C 246.960 128.120,249.173 126.437,250.417 124.859 C 251.349 123.676,251.333 123.633,251.333 127.333 L 251.333 130.667 256.167 130.667 L 261.001 130.667 260.959 107.542 L 260.917 84.417 256.125 84.372 L 251.333 84.328 251.333 87.581 C 251.333 89.370,251.296 90.833,251.250 90.833 C 251.203 90.833,250.627 90.266,249.968 89.573 C 245.651 85.028,238.454 82.818,231.500 83.902 M285.594 83.915 C 284.683 84.045,283.746 84.225,283.511 84.315 C 283.276 84.405,282.635 84.602,282.087 84.755 C 275.902 86.472,272.083 91.178,272.083 97.083 C 272.083 102.836,275.438 107.119,281.417 109.000 C 281.783 109.116,282.158 109.265,282.250 109.332 C 282.417 109.455,284.535 110.095,287.500 110.918 C 290.803 111.834,291.460 112.027,293.000 112.526 C 298.853 114.425,300.759 118.302,297.352 121.380 C 292.537 125.730,282.636 123.319,281.154 117.437 L 280.960 116.667 276.044 116.667 L 271.128 116.667 271.240 117.625 C 272.220 126.040,281.287 132.089,291.917 131.420 C 302.135 130.777,308.087 125.803,308.075 117.917 C 308.066 111.407,304.631 107.739,296.000 105.017 C 294.391 104.510,293.735 104.318,289.962 103.255 C 283.854 101.535,281.622 99.844,281.594 96.917 C 281.563 93.566,284.350 91.637,289.250 91.618 C 294.046 91.600,297.244 93.774,298.046 97.598 L 298.235 98.500 302.953 98.500 L 307.671 98.500 307.575 97.792 C 307.079 94.099,306.397 92.201,304.778 90.007 C 301.180 85.129,293.706 82.756,285.594 83.915 M365.226 83.925 C 364.387 84.047,363.231 84.302,362.656 84.490 C 362.082 84.679,361.546 84.833,361.465 84.833 C 361.093 84.833,357.947 86.481,356.750 87.303 C 342.721 96.931,344.255 121.836,359.333 129.240 C 360.021 129.578,360.698 129.915,360.839 129.989 C 363.855 131.584,370.905 131.864,375.167 130.557 C 378.509 129.532,380.930 128.085,383.365 125.655 C 385.287 123.737,385.167 123.608,385.167 127.597 L 385.167 130.667 389.917 130.667 L 394.667 130.667 394.667 107.500 L 394.667 84.333 389.917 84.333 L 385.167 84.333 385.164 87.458 C 385.163 89.188,385.089 90.695,385.000 90.833 C 384.911 90.971,384.837 90.999,384.836 90.897 C 384.832 90.641,382.757 88.571,381.653 87.722 C 377.306 84.378,371.429 83.020,365.226 83.925 M239.553 92.082 C 241.142 92.321,241.443 92.418,243.289 93.281 C 246.933 94.984,249.761 98.617,250.855 103.000 C 251.701 106.390,251.338 111.654,250.065 114.463 C 249.846 114.947,249.667 115.391,249.667 115.449 C 249.667 115.507,249.427 115.936,249.135 116.402 C 242.449 127.063,227.279 124.778,223.781 112.582 C 220.407 100.818,228.419 90.404,239.553 92.082 M372.838 92.010 C 386.833 93.761,389.865 115.414,377.016 121.845 C 373.329 123.691,367.617 123.586,364.615 121.619 C 364.375 121.462,364.118 121.333,364.043 121.333 C 363.815 121.333,361.622 119.534,360.941 118.787 C 355.946 113.317,355.431 103.304,359.841 97.418 C 362.878 93.365,367.684 91.365,372.838 92.010 " stroke="none" fill="#5c9d44" fill-rule="evenodd"></path><path id="path1" d="M0.000 73.833 L 0.000 147.667 200.000 147.667 L 400.000 147.667 400.000 73.833 L 400.000 0.000 200.000 0.000 L 0.000 0.000 0.000 73.833 M88.333 3.306 C 94.550 3.570,100.603 5.467,105.278 8.615 C 108.300 10.651,110.382 12.374,111.585 13.836 C 112.134 14.503,112.944 15.467,113.385 15.979 C 115.564 18.505,117.722 22.421,118.265 24.833 C 118.399 25.429,118.709 26.779,118.955 27.833 C 119.639 30.770,119.631 37.211,118.940 41.000 C 118.681 42.421,118.370 44.161,118.249 44.867 C 117.997 46.339,117.360 48.614,116.624 50.667 C 116.345 51.446,115.974 52.496,115.801 53.000 C 115.342 54.330,114.635 56.032,114.384 56.412 C 114.010 56.978,114.131 57.131,115.042 57.244 C 116.580 57.435,118.833 57.886,118.833 58.003 C 118.833 58.115,118.339 58.158,113.083 58.499 C 110.275 58.682,109.175 58.789,104.583 59.328 C 100.359 59.823,97.198 60.344,90.417 61.661 C 88.638 62.006,86.050 62.609,84.998 62.923 C 84.584 63.046,83.872 63.228,83.415 63.326 C 82.957 63.425,82.096 63.652,81.500 63.831 C 80.904 64.010,79.854 64.314,79.167 64.506 C 77.581 64.949,70.093 67.445,69.381 67.768 C 69.086 67.901,68.148 68.268,67.297 68.582 C 64.150 69.746,63.556 69.980,62.319 70.545 C 61.624 70.863,60.761 71.217,60.402 71.333 C 60.044 71.449,59.675 71.599,59.583 71.667 C 59.492 71.734,59.117 71.886,58.750 72.003 C 58.047 72.228,55.476 73.475,55.333 73.659 C 55.244 73.775,54.774 73.997,52.892 74.814 C 52.237 75.098,50.723 75.819,49.528 76.415 C 48.333 77.012,47.315 77.500,47.267 77.500 C 47.179 77.500,38.789 81.814,38.000 82.265 C 37.771 82.396,36.458 83.128,35.083 83.892 C 32.129 85.533,27.858 88.050,26.917 88.705 C 26.550 88.960,25.462 89.705,24.500 90.361 C 23.537 91.017,22.477 91.766,22.143 92.027 C 21.809 92.287,21.490 92.500,21.434 92.500 C 21.143 92.500,21.332 5.586,21.625 5.000 C 22.057 4.135,23.320 3.516,24.952 3.368 C 27.076 3.175,83.953 3.120,88.333 3.306 M154.964 24.319 C 155.011 26.021,154.561 29.102,154.163 29.803 C 154.075 29.957,153.701 31.021,153.331 32.167 C 152.961 33.313,152.547 34.486,152.412 34.775 C 152.277 35.064,152.167 35.343,152.167 35.396 C 152.167 35.604,149.481 41.212,149.323 41.333 C 149.264 41.379,149.118 41.717,149.000 42.083 C 147.967 45.283,141.654 51.447,139.359 51.495 C 139.236 51.498,138.936 51.611,138.692 51.746 C 138.122 52.064,136.564 52.604,135.083 52.997 C 133.379 53.449,133.092 53.542,133.000 53.667 C 132.954 53.729,132.467 53.864,131.917 53.967 C 131.367 54.071,130.354 54.261,129.667 54.391 C 126.800 54.932,126.158 54.879,126.917 54.167 C 127.146 53.951,127.333 53.713,127.333 53.638 C 127.333 53.562,127.615 53.203,127.958 52.841 C 128.852 51.897,129.150 51.560,130.248 50.250 C 131.189 49.128,133.288 46.811,135.125 44.867 C 135.606 44.357,136.000 43.882,136.000 43.811 C 136.000 43.516,135.604 42.845,135.378 42.758 C 135.148 42.670,131.896 45.212,130.500 46.571 C 129.993 47.065,127.513 49.128,126.116 50.218 C 125.858 50.419,125.387 50.800,125.068 51.064 C 124.293 51.707,124.291 51.701,124.506 49.146 C 124.744 46.321,125.394 43.193,125.983 42.036 C 126.064 41.879,126.419 41.150,126.773 40.417 C 127.127 39.683,127.473 39.058,127.542 39.028 C 127.610 38.997,127.667 38.896,127.667 38.802 C 127.667 38.708,127.892 38.298,128.167 37.891 C 128.442 37.483,128.667 37.109,128.667 37.059 C 128.667 37.009,129.009 36.518,129.428 35.968 C 129.846 35.418,130.273 34.768,130.377 34.525 C 130.480 34.282,130.675 33.952,130.809 33.791 C 130.944 33.629,131.135 33.359,131.235 33.189 C 131.984 31.918,133.624 30.158,135.022 29.126 C 137.234 27.494,138.684 26.689,141.083 25.761 C 141.725 25.513,142.475 25.209,142.750 25.085 C 143.025 24.961,143.475 24.808,143.750 24.746 C 144.025 24.684,144.700 24.496,145.250 24.328 C 146.647 23.901,149.828 23.205,151.417 22.978 C 152.150 22.874,153.125 22.733,153.583 22.666 C 154.977 22.461,154.911 22.382,154.964 24.319 M46.658 24.625 C 46.295 24.879,45.786 25.808,45.584 26.583 C 45.360 27.443,45.359 51.326,45.583 52.016 C 45.881 52.937,46.760 53.925,47.467 54.135 C 49.781 54.822,84.790 54.323,86.157 53.584 C 86.392 53.457,87.221 53.151,88.000 52.903 C 92.897 51.348,94.511 49.348,95.663 43.402 C 96.578 38.685,96.076 34.538,94.142 30.833 C 91.918 26.573,89.192 24.877,83.947 24.491 C 80.137 24.211,47.079 24.330,46.658 24.625 M108.000 63.481 C 108.000 63.563,108.281 63.681,108.625 63.744 C 112.534 64.456,116.174 68.179,119.427 74.791 C 120.476 76.922,121.333 78.711,121.333 78.766 C 121.333 78.821,121.441 79.103,121.572 79.391 C 122.184 80.741,123.316 83.966,123.979 86.250 C 124.910 89.461,124.913 99.259,123.983 103.167 C 123.602 104.767,122.744 107.664,122.427 108.417 C 122.311 108.692,122.117 109.179,121.996 109.500 C 121.671 110.357,119.083 115.415,118.680 115.982 C 118.489 116.249,118.333 116.539,118.333 116.626 C 118.333 117.847,109.329 126.333,108.033 126.333 C 107.938 126.333,107.836 126.394,107.806 126.468 C 107.514 127.175,100.661 130.062,97.167 130.950 C 92.661 132.095,90.251 132.387,80.000 133.034 C 72.613 133.500,21.142 133.166,20.823 132.651 C 20.762 132.552,20.659 130.922,20.594 129.027 C 20.467 125.378,20.396 125.041,19.911 125.783 C 19.743 126.040,18.437 127.487,17.009 129.000 C 15.581 130.512,14.096 132.162,13.710 132.667 C 12.553 134.178,11.674 135.220,9.833 137.260 C 8.871 138.327,7.925 139.436,7.732 139.725 C 7.538 140.014,6.938 140.740,6.398 141.339 C 5.858 141.939,4.672 143.307,3.763 144.381 C 2.853 145.455,2.058 146.333,1.996 146.333 C 1.854 146.333,1.701 141.122,1.559 131.489 L 1.450 124.061 3.596 121.989 C 7.221 118.489,10.444 115.341,12.476 113.315 C 13.543 112.251,15.392 110.536,16.583 109.505 C 19.203 107.237,20.302 106.202,20.517 105.802 C 20.606 105.636,20.783 105.500,20.911 105.500 C 21.038 105.500,21.242 105.406,21.363 105.292 C 21.673 104.999,24.283 102.845,25.083 102.222 C 25.450 101.937,26.025 101.443,26.361 101.126 C 26.697 100.809,28.047 99.734,29.361 98.739 C 30.675 97.743,32.210 96.551,32.772 96.089 C 33.335 95.628,34.216 94.956,34.731 94.596 C 35.245 94.236,35.667 93.887,35.667 93.820 C 35.667 93.754,36.068 93.433,36.558 93.107 C 37.049 92.782,37.747 92.268,38.110 91.966 C 38.473 91.664,39.628 90.859,40.677 90.177 C 42.420 89.045,43.291 88.471,44.969 87.352 C 47.419 85.717,56.591 80.693,59.750 79.254 C 60.300 79.004,61.575 78.402,62.583 77.918 C 64.835 76.835,65.507 76.533,67.417 75.747 C 68.242 75.408,68.992 75.071,69.083 74.999 C 69.175 74.927,69.887 74.619,70.667 74.315 C 71.446 74.011,72.158 73.672,72.250 73.562 C 72.342 73.452,72.754 73.249,73.167 73.111 C 73.579 72.974,74.554 72.586,75.333 72.251 C 76.112 71.915,77.537 71.380,78.500 71.061 C 79.462 70.742,80.477 70.378,80.754 70.251 C 81.477 69.920,83.309 69.290,85.333 68.678 C 86.296 68.386,87.271 68.070,87.500 67.974 C 88.011 67.761,90.341 67.064,91.917 66.653 C 92.558 66.486,93.908 66.132,94.917 65.867 C 101.519 64.131,108.000 62.950,108.000 63.481 M147.151 66.376 C 153.019 69.241,150.307 79.152,143.895 78.273 L 143.190 78.176 143.452 78.963 C 143.596 79.396,143.768 79.825,143.835 79.917 C 143.971 80.105,144.951 83.237,145.034 83.750 C 145.084 84.059,145.235 84.087,147.127 84.130 L 149.167 84.177 149.167 107.508 L 149.167 130.838 144.292 130.794 L 139.417 130.750 139.374 109.712 L 139.332 88.674 138.592 88.337 C 138.185 88.152,137.794 88.000,137.724 88.000 C 137.514 88.000,134.546 86.521,132.611 85.452 C 129.068 83.496,126.422 80.257,125.501 76.750 C 125.380 76.292,125.231 75.842,125.168 75.750 C 124.863 75.300,123.879 68.833,124.117 68.833 C 124.158 68.833,125.023 69.602,126.038 70.542 C 128.607 72.919,129.167 73.452,129.167 73.522 C 129.168 73.664,131.302 75.833,131.436 75.828 C 132.090 75.804,132.213 75.342,131.732 74.715 C 130.983 73.736,130.500 73.000,130.500 72.836 C 130.500 72.754,129.896 71.951,129.157 71.052 C 128.418 70.152,127.649 69.207,127.448 68.951 C 127.248 68.696,126.877 68.248,126.625 67.956 C 125.926 67.147,126.010 66.971,127.042 67.084 C 129.039 67.303,131.368 67.784,131.982 68.105 C 132.221 68.229,132.484 68.332,132.566 68.332 C 133.075 68.336,135.882 69.949,137.171 70.980 L 138.083 71.709 138.210 70.833 C 138.776 66.922,143.472 64.581,147.151 66.376 M330.000 78.417 L 330.000 84.167 335.667 84.167 L 341.333 84.167 341.333 88.167 L 341.333 92.167 335.875 92.169 C 332.873 92.171,330.320 92.233,330.201 92.309 C 330.027 92.419,329.995 95.036,330.034 105.931 L 330.083 119.417 330.479 120.293 C 331.384 122.294,332.049 122.521,337.292 122.623 L 341.333 122.701 341.333 126.780 L 341.333 130.860 335.625 130.793 C 326.699 130.688,323.762 129.447,321.565 124.855 C 320.247 122.102,320.277 122.514,320.211 106.458 L 320.153 92.167 317.407 92.167 L 314.661 92.167 314.705 88.208 L 314.750 84.250 317.458 84.204 L 320.167 84.158 320.167 78.524 C 320.167 75.425,320.217 72.839,320.278 72.778 C 320.339 72.717,322.551 72.667,325.194 72.667 L 330.000 72.667 330.000 78.417 M80.643 76.165 C 79.755 76.279,77.716 77.237,75.800 78.440 C 75.461 78.653,74.073 79.475,72.717 80.267 C 71.360 81.058,69.500 82.192,68.583 82.787 C 67.667 83.381,66.121 84.366,65.148 84.975 C 62.559 86.597,57.329 90.136,56.750 90.659 C 56.475 90.907,55.438 91.694,54.445 92.408 C 53.453 93.123,52.605 93.801,52.561 93.916 C 52.516 94.031,52.072 94.406,51.574 94.749 C 51.075 95.093,50.667 95.426,50.667 95.490 C 50.667 95.553,49.957 96.184,49.089 96.890 C 46.699 98.837,45.482 101.353,45.447 104.417 C 45.420 106.844,46.391 110.040,47.466 111.056 L 47.965 111.529 65.274 111.340 C 74.794 111.237,82.883 111.086,83.250 111.007 C 84.809 110.667,86.663 110.165,87.186 109.941 C 91.329 108.168,92.556 107.409,94.444 105.451 C 98.427 101.321,99.714 96.654,98.682 90.083 C 97.198 80.626,89.877 74.977,80.643 76.165 M190.200 83.979 C 198.030 85.937,202.762 91.247,203.957 99.417 C 204.219 101.206,204.250 102.965,204.250 116.083 L 204.250 130.750 199.382 130.794 L 194.514 130.838 194.452 116.211 L 194.390 101.583 193.961 100.137 C 192.318 94.607,188.304 91.795,182.417 92.050 C 176.813 92.292,173.419 94.914,171.883 100.186 L 171.428 101.750 171.374 116.292 L 171.321 130.833 166.410 130.833 L 161.499 130.833 161.541 107.542 L 161.583 84.250 166.458 84.206 L 171.333 84.162 171.333 86.682 L 171.333 89.203 172.337 88.274 C 174.899 85.901,178.436 84.211,182.083 83.614 C 183.491 83.384,188.770 83.622,190.200 83.979 M240.577 84.071 C 244.444 85.083,246.923 86.451,249.583 89.040 C 250.408 89.843,251.100 90.500,251.121 90.500 C 251.142 90.500,251.180 89.094,251.205 87.375 L 251.250 84.250 256.125 84.206 L 261.000 84.162 261.000 107.497 L 261.000 130.833 256.083 130.833 L 251.167 130.833 251.167 127.555 L 251.167 124.277 250.230 125.311 C 239.363 137.320,218.573 131.549,214.250 115.324 C 210.121 99.829,218.053 85.721,232.083 83.606 C 233.724 83.359,238.949 83.645,240.577 84.071 M295.333 84.051 C 302.847 85.919,307.754 91.478,307.830 98.208 C 307.833 98.480,307.490 98.500,302.924 98.500 L 298.015 98.500 297.910 97.875 C 297.489 95.364,296.015 93.541,293.548 92.477 L 292.250 91.917 289.250 91.923 C 284.337 91.933,281.964 93.400,281.708 96.584 C 281.444 99.870,283.663 101.348,292.583 103.831 C 304.206 107.066,308.374 110.782,308.385 117.917 C 308.410 133.835,279.773 137.047,272.425 121.950 C 271.726 120.514,271.000 117.951,271.000 116.918 L 271.000 116.500 276.052 116.500 L 281.104 116.500 281.322 117.375 C 283.224 125.010,298.667 125.545,298.667 117.976 C 298.667 114.873,296.609 113.540,288.417 111.334 C 285.155 110.456,283.772 110.047,282.223 109.500 C 275.342 107.071,271.849 102.976,271.775 97.250 C 271.683 90.227,277.322 84.911,286.250 83.605 C 287.991 83.350,293.628 83.627,295.333 84.051 M374.250 84.056 C 378.220 85.084,381.026 86.656,383.708 89.356 L 385.000 90.656 385.000 87.409 L 385.000 84.162 389.875 84.206 L 394.750 84.250 394.792 107.542 L 394.834 130.833 389.917 130.833 L 385.000 130.833 385.000 127.481 L 385.000 124.128 384.258 125.023 C 383.070 126.454,381.211 127.943,379.333 128.969 C 367.222 135.581,352.598 129.587,348.274 116.240 C 346.558 110.944,346.565 103.475,348.290 98.500 C 350.480 92.182,355.658 86.571,360.750 84.996 C 361.117 84.883,361.492 84.735,361.583 84.668 C 361.735 84.558,364.831 83.780,365.833 83.601 C 367.255 83.346,372.633 83.637,374.250 84.056 M235.167 92.120 C 228.516 93.308,224.295 97.989,223.390 105.181 C 221.773 118.030,233.465 127.215,243.937 121.323 C 253.074 116.182,253.753 100.504,245.098 94.521 C 242.225 92.535,238.239 91.571,235.167 92.120 M368.917 92.110 C 364.424 92.826,359.953 96.212,358.501 100.000 C 358.378 100.321,358.221 100.659,358.152 100.751 C 357.073 102.193,356.701 109.030,357.537 112.033 C 361.701 126.986,380.899 126.725,384.534 111.667 C 387.166 100.769,378.972 90.509,368.917 92.110 " stroke="none" fill="#fbfbfb" fill-rule="evenodd"></path><path id="path2" d="M106.667 63.447 C 106.346 63.480,105.521 63.613,104.833 63.741 C 104.146 63.870,103.246 64.024,102.833 64.085 C 102.421 64.146,101.146 64.417,100.000 64.689 C 98.854 64.960,97.242 65.335,96.417 65.522 C 95.592 65.709,94.467 66.000,93.917 66.168 C 93.367 66.337,92.054 66.712,91.000 67.001 C 87.844 67.869,78.180 71.090,76.725 71.759 C 76.436 71.891,76.150 72.000,76.089 72.000 C 76.028 72.000,75.590 72.177,75.114 72.394 C 74.639 72.610,74.063 72.844,73.833 72.912 C 73.324 73.065,72.281 73.532,72.167 73.658 C 72.040 73.799,71.349 74.119,70.334 74.509 C 69.830 74.703,69.342 74.922,69.250 74.997 C 69.159 75.072,68.146 75.520,67.000 75.993 C 63.648 77.376,52.498 82.861,50.667 84.028 C 50.254 84.291,48.748 85.198,47.320 86.045 C 42.667 88.802,35.687 93.545,35.673 93.958 C 35.670 94.073,35.605 94.167,35.530 94.167 C 35.361 94.167,32.701 96.118,31.850 96.867 C 31.507 97.169,30.181 98.204,28.905 99.167 C 27.628 100.129,26.434 101.075,26.250 101.269 C 26.067 101.462,24.792 102.530,23.417 103.642 C 22.042 104.754,20.467 106.099,19.917 106.630 C 19.367 107.161,18.092 108.296,17.083 109.151 C 16.075 110.006,12.662 113.237,9.500 116.331 C 6.337 119.425,3.312 122.358,2.777 122.849 C 2.242 123.341,1.741 123.862,1.663 124.007 C 1.508 124.296,1.780 142.994,1.968 144.964 L 2.083 146.178 4.689 143.214 C 6.122 141.584,7.578 139.875,7.925 139.417 C 8.272 138.958,9.425 137.623,10.486 136.448 C 11.548 135.274,12.454 134.218,12.500 134.102 C 12.654 133.712,16.212 129.685,18.824 126.945 C 19.333 126.411,19.807 125.872,19.878 125.747 C 19.948 125.623,21.298 124.194,22.878 122.573 C 24.457 120.952,25.863 119.458,26.000 119.253 C 27.587 116.885,43.212 101.639,48.500 97.298 C 49.647 96.356,50.542 95.578,52.203 94.076 C 53.927 92.518,60.665 87.730,65.000 84.984 C 66.054 84.316,67.817 83.197,68.917 82.498 C 70.017 81.798,71.742 80.753,72.750 80.174 C 73.758 79.596,74.958 78.880,75.417 78.584 C 75.875 78.288,77.328 77.471,78.645 76.770 C 79.963 76.068,81.238 75.355,81.479 75.185 C 81.720 75.015,82.403 74.631,82.998 74.332 C 83.593 74.033,84.155 73.688,84.248 73.566 C 85.128 72.405,101.023 65.299,105.470 64.079 C 108.143 63.345,108.263 63.282,106.667 63.447 " stroke="none" fill="#eb962b" fill-rule="evenodd"></path><path id="path3" d="M49.958 3.291 C 51.173 3.320,53.160 3.320,54.375 3.291 C 55.590 3.263,54.596 3.239,52.167 3.239 C 49.737 3.239,48.744 3.263,49.958 3.291 M83.964 3.290 C 84.448 3.324,85.198 3.323,85.631 3.289 C 86.063 3.255,85.667 3.227,84.750 3.228 C 83.833 3.228,83.480 3.256,83.964 3.290 M90.044 3.453 C 90.297 3.491,90.672 3.490,90.877 3.451 C 91.082 3.411,90.875 3.380,90.417 3.381 C 89.958 3.382,89.791 3.415,90.044 3.453 M23.333 3.674 C 23.151 3.798,23.218 3.813,23.583 3.732 C 24.196 3.595,24.329 3.499,23.903 3.503 C 23.727 3.504,23.471 3.581,23.333 3.674 M91.625 3.618 C 91.831 3.657,92.169 3.657,92.375 3.618 C 92.581 3.578,92.412 3.545,92.000 3.545 C 91.587 3.545,91.419 3.578,91.625 3.618 M21.968 4.458 C 21.674 4.800,21.454 5.167,21.542 5.167 C 21.576 5.167,21.770 4.942,21.974 4.667 C 22.375 4.123,22.372 3.988,21.968 4.458 M95.417 4.333 C 95.600 4.412,95.862 4.477,96.000 4.477 C 96.158 4.477,96.127 4.424,95.917 4.333 C 95.733 4.255,95.471 4.190,95.333 4.190 C 95.176 4.190,95.207 4.243,95.417 4.333 M21.375 49.625 C 21.349 76.334,21.392 92.500,21.490 92.500 C 21.576 92.500,21.701 92.413,21.766 92.308 C 21.840 92.188,21.812 92.160,21.693 92.234 C 21.548 92.323,21.490 81.811,21.458 49.551 L 21.416 6.750 21.375 49.625 M107.667 10.394 C 107.667 10.440,107.892 10.638,108.167 10.833 C 108.442 11.029,108.667 11.152,108.667 11.106 C 108.667 11.060,108.442 10.862,108.167 10.667 C 107.892 10.471,107.667 10.348,107.667 10.394 M109.833 12.052 C 109.833 12.081,110.077 12.325,110.375 12.594 L 110.917 13.083 110.427 12.542 C 109.971 12.037,109.833 11.923,109.833 12.052 M111.000 13.273 C 111.000 13.362,111.281 13.693,111.625 14.009 L 112.250 14.583 111.667 13.919 C 111.346 13.553,111.065 13.222,111.042 13.182 C 111.019 13.143,111.000 13.184,111.000 13.273 M113.489 16.292 C 113.890 16.773,114.251 17.167,114.290 17.167 C 114.403 17.167,113.377 15.909,113.053 15.651 C 112.891 15.522,113.088 15.810,113.489 16.292 M154.536 22.604 C 154.781 22.677,154.831 22.964,154.878 24.553 L 154.933 26.417 154.925 24.502 C 154.917 22.713,154.895 22.585,154.583 22.553 C 154.334 22.528,154.322 22.541,154.536 22.604 M153.125 22.784 C 153.331 22.824,153.669 22.824,153.875 22.784 C 154.081 22.745,153.912 22.712,153.500 22.712 C 153.087 22.712,152.919 22.745,153.125 22.784 M46.588 24.526 C 46.158 24.864,45.579 25.801,45.715 25.937 C 45.756 25.978,45.884 25.781,46.000 25.500 C 46.443 24.431,46.722 24.348,49.548 24.452 C 50.942 24.503,52.046 24.508,52.000 24.462 C 51.688 24.150,46.995 24.206,46.588 24.526 M61.887 24.292 C 65.721 24.317,71.946 24.317,75.721 24.292 C 79.495 24.267,76.358 24.246,68.750 24.246 C 61.142 24.246,58.054 24.267,61.887 24.292 M83.121 24.454 C 83.417 24.490,83.942 24.491,84.288 24.455 C 84.634 24.419,84.392 24.389,83.750 24.388 C 83.108 24.387,82.825 24.417,83.121 24.454 M88.681 25.395 C 88.852 25.549,89.833 26.000,89.833 25.925 C 89.833 25.829,88.909 25.333,88.730 25.333 C 88.665 25.333,88.642 25.361,88.681 25.395 M90.329 26.284 C 90.556 26.449,91.006 26.805,91.329 27.076 L 91.917 27.568 91.466 27.075 C 91.218 26.803,90.768 26.447,90.466 26.283 C 89.937 25.996,89.932 25.997,90.329 26.284 M92.753 28.542 C 93.111 28.977,93.431 29.333,93.463 29.333 C 93.583 29.333,92.859 28.407,92.486 28.083 C 92.275 27.900,92.395 28.106,92.753 28.542 M45.227 29.667 C 45.227 30.537,45.255 30.894,45.289 30.458 C 45.324 30.023,45.324 29.310,45.289 28.875 C 45.255 28.440,45.227 28.796,45.227 29.667 M154.245 29.083 C 154.202 29.221,154.130 29.450,154.085 29.592 C 154.040 29.734,154.069 29.810,154.149 29.761 C 154.228 29.712,154.330 29.483,154.374 29.252 C 154.461 28.797,154.371 28.679,154.245 29.083 M119.205 29.833 C 119.205 30.154,119.240 30.285,119.282 30.125 C 119.323 29.965,119.323 29.702,119.282 29.542 C 119.240 29.381,119.205 29.512,119.205 29.833 M93.503 29.583 C 93.502 29.768,94.320 31.148,94.328 30.975 C 94.331 30.916,94.147 30.541,93.919 30.142 C 93.691 29.743,93.503 29.492,93.503 29.583 M133.167 30.750 C 132.484 31.438,131.963 32.000,132.008 32.000 C 132.054 32.000,132.650 31.438,133.333 30.750 C 134.016 30.063,134.537 29.500,134.492 29.500 C 134.446 29.500,133.850 30.063,133.167 30.750 M119.388 31.583 C 119.389 32.225,119.419 32.467,119.455 32.121 C 119.491 31.775,119.490 31.250,119.454 30.955 C 119.417 30.659,119.387 30.942,119.388 31.583 M45.409 39.250 C 45.409 42.733,45.431 44.182,45.458 42.469 C 45.485 40.757,45.485 37.907,45.458 36.136 C 45.431 34.365,45.409 35.767,45.409 39.250 M152.528 34.158 C 152.430 34.438,152.386 34.667,152.429 34.667 C 152.542 34.667,152.856 33.801,152.774 33.718 C 152.736 33.681,152.625 33.878,152.528 34.158 M95.528 34.333 C 95.537 34.766,95.799 35.478,95.805 35.083 C 95.808 34.900,95.745 34.600,95.667 34.417 C 95.579 34.212,95.525 34.180,95.528 34.333 M119.390 36.417 C 119.391 37.150,119.420 37.429,119.456 37.037 C 119.491 36.645,119.490 36.045,119.454 35.704 C 119.419 35.363,119.390 35.683,119.390 36.417 M96.039 37.000 C 96.039 37.321,96.073 37.452,96.115 37.292 C 96.157 37.131,96.157 36.869,96.115 36.708 C 96.073 36.548,96.039 36.679,96.039 37.000 M119.209 38.417 C 119.211 38.783,119.245 38.914,119.285 38.706 C 119.324 38.499,119.323 38.199,119.281 38.040 C 119.239 37.880,119.207 38.050,119.209 38.417 M96.039 41.167 C 96.039 41.487,96.073 41.619,96.115 41.458 C 96.157 41.298,96.157 41.035,96.115 40.875 C 96.073 40.715,96.039 40.846,96.039 41.167 M95.600 43.683 C 95.539 44.065,95.521 44.410,95.561 44.450 C 95.601 44.490,95.686 44.212,95.750 43.833 C 95.814 43.454,95.831 43.109,95.789 43.067 C 95.746 43.024,95.661 43.301,95.600 43.683 M94.700 47.117 C 94.453 47.920,94.573 48.040,94.833 47.250 C 94.943 46.917,95.001 46.612,94.961 46.572 C 94.922 46.533,94.804 46.778,94.700 47.117 M45.223 50.167 C 45.223 50.854,45.252 51.135,45.288 50.792 C 45.324 50.448,45.324 49.885,45.288 49.542 C 45.252 49.198,45.223 49.479,45.223 50.167 M93.272 49.860 C 93.022 50.242,92.939 50.453,93.087 50.331 C 93.339 50.122,93.911 49.167,93.784 49.167 C 93.752 49.167,93.522 49.479,93.272 49.860 M124.333 50.917 C 124.333 51.237,124.393 51.500,124.467 51.500 C 124.540 51.500,124.569 51.237,124.532 50.917 C 124.494 50.596,124.434 50.333,124.398 50.333 C 124.363 50.333,124.333 50.596,124.333 50.917 M129.740 50.875 L 129.250 51.417 129.792 50.927 C 130.090 50.658,130.333 50.414,130.333 50.385 C 130.333 50.257,130.196 50.370,129.740 50.875 M91.923 51.019 C 91.047 51.677,90.965 51.786,91.636 51.401 C 92.109 51.129,92.853 50.477,92.651 50.511 C 92.614 50.518,92.286 50.746,91.923 51.019 M90.333 52.000 C 90.013 52.176,89.810 52.323,89.883 52.326 C 90.060 52.336,91.000 51.847,91.000 51.746 C 91.000 51.637,90.990 51.640,90.333 52.000 M46.240 53.388 C 46.496 53.725,46.740 54.000,46.781 54.000 C 46.897 54.000,46.175 53.025,45.962 52.893 C 45.858 52.829,45.983 53.052,46.240 53.388 M86.093 53.589 C 85.865 53.761,85.841 53.832,86.010 53.828 C 86.142 53.825,86.396 53.713,86.574 53.578 C 86.802 53.406,86.826 53.335,86.657 53.339 C 86.525 53.342,86.271 53.454,86.093 53.589 M132.944 53.444 C 132.883 53.506,132.834 53.637,132.836 53.736 C 132.838 53.858,132.878 53.856,132.961 53.728 C 133.028 53.624,133.233 53.501,133.417 53.455 C 133.739 53.375,133.739 53.371,133.403 53.353 C 133.212 53.342,133.006 53.383,132.944 53.444 M47.417 54.240 C 47.847 54.451,49.972 54.480,62.583 54.453 L 77.250 54.421 62.417 54.336 C 54.258 54.288,47.433 54.193,47.250 54.122 C 47.067 54.052,47.142 54.105,47.417 54.240 M83.000 54.167 L 82.250 54.283 82.917 54.289 C 83.283 54.292,83.808 54.237,84.083 54.167 C 84.750 53.997,84.091 53.997,83.000 54.167 M80.208 54.455 C 80.552 54.491,81.115 54.491,81.458 54.455 C 81.802 54.419,81.521 54.389,80.833 54.389 C 80.146 54.389,79.865 54.419,80.208 54.455 M115.542 57.448 C 115.702 57.490,115.965 57.490,116.125 57.448 C 116.285 57.406,116.154 57.372,115.833 57.372 C 115.513 57.372,115.381 57.406,115.542 57.448 M115.295 58.287 C 115.594 58.325,116.044 58.324,116.295 58.286 C 116.545 58.248,116.300 58.217,115.750 58.218 C 115.200 58.219,114.995 58.250,115.295 58.287 M112.955 58.454 C 113.250 58.490,113.775 58.491,114.121 58.455 C 114.467 58.419,114.225 58.389,113.583 58.388 C 112.942 58.387,112.659 58.417,112.955 58.454 M111.042 58.615 C 111.202 58.657,111.465 58.657,111.625 58.615 C 111.785 58.573,111.654 58.539,111.333 58.539 C 111.013 58.539,110.881 58.573,111.042 58.615 M107.208 58.948 C 107.369 58.990,107.631 58.990,107.792 58.948 C 107.952 58.906,107.821 58.872,107.500 58.872 C 107.179 58.872,107.048 58.906,107.208 58.948 M105.794 59.118 C 106.001 59.158,106.301 59.156,106.460 59.115 C 106.620 59.073,106.450 59.040,106.083 59.042 C 105.717 59.044,105.586 59.078,105.794 59.118 M100.542 59.782 C 100.702 59.823,100.965 59.823,101.125 59.782 C 101.285 59.740,101.154 59.705,100.833 59.705 C 100.513 59.705,100.381 59.740,100.542 59.782 M83.833 63.096 L 83.083 63.327 83.750 63.231 C 84.117 63.179,84.529 63.070,84.667 62.990 C 85.013 62.787,84.718 62.825,83.833 63.096 M80.833 63.917 C 80.512 64.040,80.362 64.144,80.500 64.146 C 80.637 64.149,80.975 64.049,81.250 63.923 C 81.894 63.628,81.594 63.624,80.833 63.917 M108.847 63.893 C 108.885 63.926,109.142 64.003,109.417 64.065 C 109.782 64.147,109.849 64.131,109.667 64.008 C 109.442 63.855,108.680 63.749,108.847 63.893 M114.326 67.208 C 115.017 67.944,115.167 68.077,115.167 67.951 C 115.167 67.925,114.810 67.568,114.375 67.160 L 113.583 66.417 114.326 67.208 M70.917 67.089 C 70.500 67.290,70.486 67.313,70.833 67.228 C 71.306 67.113,71.836 66.842,71.583 66.846 C 71.492 66.847,71.192 66.957,70.917 67.089 M139.824 67.625 L 139.250 68.250 139.875 67.676 C 140.457 67.141,140.577 67.000,140.449 67.000 C 140.422 67.000,140.140 67.281,139.824 67.625 M148.167 67.052 C 148.167 67.081,148.410 67.325,148.708 67.594 L 149.250 68.083 148.760 67.542 C 148.304 67.037,148.167 66.923,148.167 67.052 M127.377 67.286 C 127.631 67.325,128.006 67.324,128.211 67.284 C 128.416 67.244,128.208 67.213,127.750 67.214 C 127.292 67.216,127.124 67.248,127.377 67.286 M64.750 69.423 C 64.333 69.623,64.319 69.646,64.667 69.562 C 65.139 69.446,65.670 69.176,65.417 69.179 C 65.325 69.181,65.025 69.290,64.750 69.423 M124.217 70.167 C 124.217 70.671,124.248 70.877,124.286 70.625 C 124.324 70.373,124.324 69.960,124.286 69.708 C 124.248 69.456,124.217 69.662,124.217 70.167 M60.917 71.012 C 60.550 71.188,60.438 71.286,60.667 71.229 C 61.139 71.111,62.005 70.677,61.750 70.686 C 61.658 70.689,61.283 70.836,60.917 71.012 M150.375 71.250 C 150.377 71.617,150.411 71.747,150.451 71.540 C 150.491 71.332,150.490 71.032,150.448 70.873 C 150.406 70.714,150.374 70.883,150.375 71.250 M150.372 72.833 C 150.372 73.154,150.406 73.285,150.448 73.125 C 150.490 72.965,150.490 72.702,150.448 72.542 C 150.406 72.381,150.372 72.512,150.372 72.833 M320.278 72.778 C 320.217 72.839,320.167 75.425,320.167 78.524 L 320.167 84.158 317.458 84.204 L 314.750 84.250 314.745 88.250 L 314.741 92.250 314.790 88.296 L 314.839 84.342 317.545 84.296 L 320.250 84.250 320.294 78.544 L 320.338 72.838 325.211 72.792 L 330.083 72.745 325.236 72.706 C 322.570 72.684,320.339 72.717,320.278 72.778 M118.530 73.281 C 118.825 73.973,119.039 74.162,118.821 73.538 C 118.718 73.242,118.566 72.957,118.482 72.906 C 118.399 72.854,118.421 73.023,118.530 73.281 M55.458 73.347 C 55.298 73.440,55.168 73.607,55.169 73.717 C 55.171 73.855,55.210 73.861,55.294 73.736 C 55.362 73.636,55.567 73.470,55.750 73.366 C 55.933 73.262,56.008 73.177,55.917 73.177 C 55.825 73.177,55.619 73.253,55.458 73.347 M80.708 76.115 C 80.869 76.157,81.131 76.157,81.292 76.115 C 81.452 76.073,81.321 76.039,81.000 76.039 C 80.679 76.039,80.548 76.073,80.708 76.115 M86.917 76.500 C 87.100 76.579,87.362 76.643,87.500 76.643 C 87.658 76.643,87.627 76.590,87.417 76.500 C 87.233 76.421,86.971 76.357,86.833 76.357 C 86.676 76.357,86.707 76.410,86.917 76.500 M47.500 77.250 C 47.271 77.381,47.158 77.488,47.250 77.488 C 47.342 77.488,47.604 77.381,47.833 77.250 C 48.063 77.119,48.175 77.012,48.083 77.012 C 47.992 77.012,47.729 77.119,47.500 77.250 M89.667 77.417 C 89.896 77.548,90.158 77.655,90.250 77.655 C 90.342 77.655,90.229 77.548,90.000 77.417 C 89.771 77.286,89.508 77.178,89.417 77.178 C 89.325 77.178,89.438 77.286,89.667 77.417 M90.833 77.908 C 90.833 77.954,91.058 78.108,91.333 78.250 C 91.608 78.392,91.833 78.471,91.833 78.425 C 91.833 78.379,91.608 78.226,91.333 78.083 C 91.058 77.941,90.833 77.862,90.833 77.908 M120.845 77.917 C 120.845 78.008,120.952 78.271,121.083 78.500 C 121.214 78.729,121.322 78.842,121.322 78.750 C 121.322 78.658,121.214 78.396,121.083 78.167 C 120.952 77.938,120.845 77.825,120.845 77.917 M143.079 78.175 C 143.048 78.225,143.099 78.375,143.193 78.508 C 143.334 78.706,143.348 78.698,143.273 78.462 C 143.192 78.212,143.271 78.187,143.882 78.266 C 144.268 78.316,144.883 78.290,145.250 78.208 C 145.817 78.082,145.709 78.062,144.526 78.072 C 143.761 78.078,143.110 78.124,143.079 78.175 M94.417 80.833 C 94.868 81.292,95.275 81.667,95.321 81.667 C 95.367 81.667,95.035 81.292,94.583 80.833 C 94.132 80.375,93.725 80.000,93.679 80.000 C 93.633 80.000,93.965 80.375,94.417 80.833 M122.429 81.833 C 122.490 82.063,122.610 82.362,122.695 82.500 C 122.802 82.674,122.815 82.623,122.738 82.333 C 122.676 82.104,122.557 81.804,122.472 81.667 C 122.365 81.493,122.351 81.544,122.429 81.833 M96.317 83.250 C 96.598 83.794,96.828 84.095,96.827 83.917 C 96.826 83.825,96.673 83.563,96.485 83.333 C 96.259 83.057,96.202 83.029,96.317 83.250 M182.708 83.615 C 182.869 83.657,183.131 83.657,183.292 83.615 C 183.452 83.573,183.321 83.539,183.000 83.539 C 182.679 83.539,182.548 83.573,182.708 83.615 M187.127 83.618 C 187.334 83.658,187.634 83.656,187.794 83.615 C 187.953 83.573,187.783 83.540,187.417 83.542 C 187.050 83.544,186.920 83.578,187.127 83.618 M232.708 83.615 C 232.869 83.657,233.131 83.657,233.292 83.615 C 233.452 83.573,233.321 83.539,233.000 83.539 C 232.679 83.539,232.548 83.573,232.708 83.615 M237.208 83.615 C 237.369 83.657,237.631 83.657,237.792 83.615 C 237.952 83.573,237.821 83.539,237.500 83.539 C 237.179 83.539,237.048 83.573,237.208 83.615 M286.958 83.618 C 287.165 83.657,287.502 83.657,287.708 83.618 C 287.915 83.578,287.746 83.545,287.333 83.545 C 286.921 83.545,286.752 83.578,286.958 83.618 M291.875 83.615 C 292.035 83.657,292.298 83.657,292.458 83.615 C 292.619 83.573,292.487 83.539,292.167 83.539 C 291.846 83.539,291.715 83.573,291.875 83.615 M366.460 83.618 C 366.668 83.658,366.968 83.656,367.127 83.615 C 367.286 83.573,367.117 83.540,366.750 83.542 C 366.383 83.544,366.253 83.578,366.460 83.618 M370.875 83.615 C 371.035 83.657,371.298 83.657,371.458 83.615 C 371.619 83.573,371.488 83.539,371.167 83.539 C 370.846 83.539,370.715 83.573,370.875 83.615 M230.917 83.841 C 230.684 83.946,230.785 83.961,231.250 83.891 C 231.617 83.835,231.948 83.762,231.986 83.728 C 232.129 83.602,231.237 83.696,230.917 83.841 M285.542 83.782 C 285.702 83.823,285.965 83.823,286.125 83.782 C 286.285 83.740,286.154 83.705,285.833 83.705 C 285.512 83.705,285.381 83.740,285.542 83.782 M145.133 84.198 C 145.288 84.351,149.167 84.450,149.167 84.301 C 149.167 84.238,148.233 84.163,147.091 84.135 C 145.949 84.106,145.068 84.135,145.133 84.198 M161.577 84.375 C 161.533 84.490,161.517 95.008,161.541 107.750 L 161.585 130.917 161.626 107.620 L 161.667 84.323 166.500 84.370 C 169.158 84.396,171.333 84.360,171.333 84.292 C 171.333 84.059,161.666 84.142,161.577 84.375 M251.248 84.375 C 251.116 84.742,251.079 90.667,251.208 90.667 C 251.277 90.667,251.333 89.243,251.333 87.503 L 251.333 84.338 256.208 84.292 L 261.083 84.245 256.203 84.206 C 252.421 84.175,251.306 84.214,251.248 84.375 M332.864 84.291 C 334.394 84.319,336.944 84.319,338.531 84.291 C 340.118 84.264,338.867 84.242,335.750 84.241 C 332.633 84.241,331.335 84.264,332.864 84.291 M386.667 84.284 C 391.066 84.402,394.795 84.406,394.725 84.292 C 394.682 84.223,392.458 84.183,389.782 84.202 C 387.106 84.222,385.704 84.259,386.667 84.284 M244.167 85.417 C 244.396 85.548,244.658 85.655,244.750 85.655 C 244.842 85.655,244.729 85.548,244.500 85.417 C 244.271 85.286,244.008 85.178,243.917 85.178 C 243.825 85.178,243.938 85.286,244.167 85.417 M359.667 85.417 C 359.438 85.548,359.325 85.655,359.417 85.655 C 359.508 85.655,359.771 85.548,360.000 85.417 C 360.229 85.286,360.342 85.178,360.250 85.178 C 360.158 85.178,359.896 85.286,359.667 85.417 M97.762 86.333 C 97.824 86.563,97.943 86.862,98.028 87.000 C 98.135 87.174,98.149 87.123,98.071 86.833 C 98.010 86.604,97.890 86.304,97.805 86.167 C 97.698 85.993,97.685 86.044,97.762 86.333 M196.500 86.727 C 196.500 86.773,196.725 86.971,197.000 87.167 C 197.275 87.362,197.500 87.485,197.500 87.439 C 197.500 87.394,197.275 87.196,197.000 87.000 C 196.725 86.804,196.500 86.681,196.500 86.727 M303.250 88.167 C 303.608 88.533,303.938 88.833,303.984 88.833 C 304.030 88.833,303.775 88.533,303.417 88.167 C 303.059 87.800,302.728 87.500,302.682 87.500 C 302.637 87.500,302.892 87.800,303.250 88.167 M172.077 88.542 L 171.250 89.417 172.125 88.590 C 172.606 88.135,173.000 87.741,173.000 87.715 C 173.000 87.590,172.846 87.729,172.077 88.542 M198.750 88.667 C 199.294 89.217,199.777 89.667,199.823 89.667 C 199.869 89.667,199.461 89.217,198.917 88.667 C 198.372 88.117,197.890 87.667,197.844 87.667 C 197.798 87.667,198.206 88.117,198.750 88.667 M383.500 89.250 C 383.998 89.754,384.443 90.167,384.489 90.167 C 384.534 90.167,384.165 89.754,383.667 89.250 C 383.169 88.746,382.724 88.333,382.678 88.333 C 382.632 88.333,383.002 88.746,383.500 89.250 M139.333 109.633 L 139.417 130.750 139.459 109.759 C 139.482 98.214,139.445 88.711,139.376 88.642 C 139.307 88.573,139.287 98.019,139.333 109.633 M353.658 89.625 L 353.083 90.250 353.708 89.676 C 354.052 89.360,354.333 89.078,354.333 89.051 C 354.333 88.923,354.192 89.043,353.658 89.625 M98.782 90.583 C 98.833 91.133,98.903 91.615,98.938 91.653 C 99.049 91.777,98.964 90.597,98.825 90.083 C 98.736 89.755,98.721 89.926,98.782 90.583 M218.906 90.708 L 218.417 91.250 218.958 90.760 C 219.463 90.304,219.577 90.167,219.448 90.167 C 219.419 90.167,219.175 90.410,218.906 90.708 M288.542 91.789 C 288.977 91.824,289.690 91.824,290.125 91.789 C 290.560 91.755,290.204 91.727,289.333 91.727 C 288.462 91.727,288.106 91.755,288.542 91.789 M373.917 92.333 C 374.100 92.412,374.363 92.477,374.500 92.477 C 374.658 92.477,374.627 92.424,374.417 92.333 C 374.233 92.255,373.971 92.190,373.833 92.190 C 373.676 92.190,373.707 92.243,373.917 92.333 M320.246 106.000 C 320.246 113.563,320.267 116.656,320.292 112.875 C 320.317 109.094,320.317 102.906,320.292 99.125 C 320.267 95.344,320.246 98.438,320.246 106.000 M99.059 94.083 C 99.059 94.908,99.087 95.267,99.122 94.880 C 99.157 94.493,99.157 93.818,99.123 93.380 C 99.088 92.942,99.060 93.258,99.059 94.083 M282.824 93.792 L 282.250 94.417 282.875 93.842 C 283.457 93.308,283.577 93.167,283.449 93.167 C 283.422 93.167,283.140 93.448,282.824 93.792 M296.000 94.083 C 296.311 94.404,296.603 94.667,296.649 94.667 C 296.695 94.667,296.478 94.404,296.167 94.083 C 295.856 93.763,295.564 93.500,295.518 93.500 C 295.472 93.500,295.689 93.763,296.000 94.083 M191.083 95.000 C 191.441 95.367,191.772 95.667,191.818 95.667 C 191.863 95.667,191.608 95.367,191.250 95.000 C 190.892 94.633,190.562 94.333,190.516 94.333 C 190.470 94.333,190.725 94.633,191.083 95.000 M174.491 95.125 L 173.917 95.750 174.542 95.176 C 175.123 94.641,175.243 94.500,175.116 94.500 C 175.088 94.500,174.807 94.781,174.491 95.125 M271.872 95.500 C 271.872 95.821,271.906 95.952,271.948 95.792 C 271.990 95.631,271.990 95.369,271.948 95.208 C 271.906 95.048,271.872 95.179,271.872 95.500 M380.667 96.083 C 381.165 96.587,381.609 97.000,381.655 97.000 C 381.701 97.000,381.331 96.587,380.833 96.083 C 380.335 95.579,379.891 95.167,379.845 95.167 C 379.799 95.167,380.169 95.579,380.667 96.083 M361.158 95.958 L 360.583 96.583 361.208 96.009 C 361.790 95.474,361.910 95.333,361.783 95.333 C 361.755 95.333,361.474 95.615,361.158 95.958 M98.872 96.667 C 98.872 96.987,98.906 97.119,98.948 96.958 C 98.990 96.798,98.990 96.535,98.948 96.375 C 98.906 96.215,98.872 96.346,98.872 96.667 M271.717 97.000 C 271.717 97.504,271.748 97.710,271.786 97.458 C 271.824 97.206,271.824 96.794,271.786 96.542 C 271.748 96.290,271.717 96.496,271.717 97.000 M203.357 96.833 C 203.357 96.971,203.421 97.233,203.500 97.417 C 203.590 97.627,203.643 97.658,203.643 97.500 C 203.643 97.362,203.579 97.100,203.500 96.917 C 203.410 96.707,203.357 96.676,203.357 96.833 M124.539 97.667 C 124.539 97.987,124.573 98.119,124.615 97.958 C 124.657 97.798,124.657 97.535,124.615 97.375 C 124.573 97.215,124.539 97.346,124.539 97.667 M382.000 97.667 C 382.196 97.942,382.394 98.167,382.439 98.167 C 382.485 98.167,382.362 97.942,382.167 97.667 C 381.971 97.392,381.773 97.167,381.727 97.167 C 381.681 97.167,381.804 97.392,382.000 97.667 M271.875 98.750 C 271.877 99.117,271.911 99.247,271.951 99.040 C 271.991 98.832,271.990 98.532,271.948 98.373 C 271.906 98.214,271.874 98.383,271.875 98.750 M347.929 99.429 C 347.867 99.673,347.849 99.905,347.889 99.944 C 347.928 99.983,348.010 99.816,348.071 99.571 C 348.133 99.327,348.151 99.095,348.111 99.056 C 348.072 99.017,347.990 99.184,347.929 99.429 M97.944 100.194 C 97.794 100.578,97.698 100.920,97.731 100.953 C 97.764 100.987,97.917 100.701,98.069 100.319 C 98.222 99.938,98.318 99.596,98.283 99.561 C 98.248 99.525,98.095 99.811,97.944 100.194 M124.372 100.000 C 124.372 100.321,124.406 100.452,124.448 100.292 C 124.490 100.131,124.490 99.869,124.448 99.708 C 124.406 99.548,124.372 99.679,124.372 100.000 M124.189 101.500 C 124.174 101.729,124.124 102.104,124.076 102.333 L 123.991 102.750 124.170 102.340 C 124.268 102.114,124.319 101.739,124.283 101.506 L 124.217 101.083 124.189 101.500 M45.595 102.095 C 45.534 102.339,45.516 102.571,45.555 102.611 C 45.594 102.650,45.677 102.482,45.738 102.238 C 45.799 101.994,45.817 101.762,45.778 101.723 C 45.739 101.683,45.657 101.851,45.595 102.095 M357.417 102.667 C 357.353 102.955,357.336 103.225,357.379 103.268 C 357.421 103.310,357.504 103.105,357.563 102.813 C 357.701 102.118,357.567 101.983,357.417 102.667 M204.246 116.500 C 204.246 124.337,204.267 127.544,204.292 123.625 C 204.317 119.706,204.317 113.294,204.292 109.375 C 204.267 105.456,204.246 108.662,204.246 116.500 M384.362 102.667 C 384.370 103.100,384.633 103.811,384.638 103.417 C 384.641 103.233,384.579 102.933,384.500 102.750 C 384.412 102.546,384.359 102.514,384.362 102.667 M45.372 103.333 C 45.372 103.654,45.406 103.785,45.448 103.625 C 45.490 103.465,45.490 103.202,45.448 103.042 C 45.406 102.881,45.372 103.013,45.372 103.333 M291.583 103.667 C 291.767 103.745,292.029 103.810,292.167 103.810 C 292.324 103.810,292.293 103.757,292.083 103.667 C 291.900 103.588,291.637 103.523,291.500 103.523 C 291.342 103.523,291.373 103.576,291.583 103.667 M347.039 104.333 C 347.039 104.654,347.073 104.785,347.115 104.625 C 347.157 104.465,347.157 104.202,347.115 104.042 C 347.073 103.881,347.039 104.013,347.039 104.333 M94.246 105.708 L 92.917 107.083 94.292 105.754 C 95.569 104.519,95.743 104.333,95.621 104.333 C 95.596 104.333,94.977 104.952,94.246 105.708 M223.212 105.667 C 223.212 106.079,223.245 106.248,223.284 106.042 C 223.324 105.835,223.324 105.498,223.284 105.292 C 223.245 105.085,223.212 105.254,223.212 105.667 M213.229 107.417 C 213.229 108.425,213.257 108.816,213.290 108.286 C 213.323 107.755,213.323 106.930,213.289 106.452 C 213.256 105.974,213.229 106.408,213.229 107.417 M251.200 107.333 C 251.180 108.296,251.127 109.383,251.084 109.750 L 251.005 110.417 251.174 109.754 C 251.268 109.389,251.320 108.302,251.291 107.337 L 251.237 105.583 251.200 107.333 M300.347 106.562 C 300.519 106.716,301.500 107.167,301.500 107.092 C 301.500 106.996,300.576 106.500,300.397 106.500 C 300.332 106.500,300.309 106.528,300.347 106.562 M90.792 108.262 C 90.169 108.600,90.207 108.741,90.833 108.417 C 91.108 108.274,91.333 108.123,91.333 108.079 C 91.333 107.972,91.315 107.978,90.792 108.262 M223.209 109.083 C 223.211 109.450,223.245 109.580,223.285 109.373 C 223.324 109.166,223.323 108.866,223.281 108.706 C 223.239 108.547,223.207 108.717,223.209 109.083 M89.000 109.167 C 88.679 109.342,88.492 109.486,88.583 109.486 C 88.675 109.486,89.013 109.342,89.333 109.167 C 89.654 108.991,89.842 108.847,89.750 108.847 C 89.658 108.847,89.321 108.991,89.000 109.167 M305.000 109.750 C 305.498 110.254,305.943 110.667,305.989 110.667 C 306.034 110.667,305.665 110.254,305.167 109.750 C 304.669 109.246,304.224 108.833,304.178 108.833 C 304.132 108.833,304.502 109.246,305.000 109.750 M87.167 109.917 C 86.938 110.048,86.825 110.155,86.917 110.155 C 87.008 110.155,87.271 110.048,87.500 109.917 C 87.729 109.786,87.842 109.678,87.750 109.678 C 87.658 109.678,87.396 109.786,87.167 109.917 M283.167 109.805 C 283.304 109.890,283.604 110.010,283.833 110.071 C 284.123 110.149,284.174 110.135,284.000 110.028 C 283.862 109.943,283.563 109.824,283.333 109.762 C 283.044 109.685,282.993 109.698,283.167 109.805 M347.039 110.333 C 347.039 110.654,347.073 110.785,347.115 110.625 C 347.157 110.465,347.157 110.202,347.115 110.042 C 347.073 109.881,347.039 110.013,347.039 110.333 M46.833 110.552 C 46.833 110.581,47.077 110.825,47.375 111.094 L 47.917 111.583 47.427 111.042 C 46.971 110.537,46.833 110.423,46.833 110.552 M84.000 110.841 C 83.817 110.964,83.885 110.980,84.250 110.898 C 84.863 110.761,84.996 110.666,84.569 110.669 C 84.394 110.671,84.137 110.748,84.000 110.841 M14.073 111.708 L 13.583 112.250 14.125 111.760 C 14.630 111.304,14.743 111.167,14.615 111.167 C 14.586 111.167,14.342 111.410,14.073 111.708 M77.292 111.291 C 78.231 111.321,79.769 111.321,80.708 111.291 C 81.648 111.261,80.879 111.237,79.000 111.237 C 77.121 111.237,76.352 111.261,77.292 111.291 M61.458 111.458 C 63.498 111.485,66.835 111.485,68.875 111.458 C 70.915 111.432,69.246 111.410,65.167 111.410 C 61.087 111.410,59.419 111.432,61.458 111.458 M384.438 111.854 C 384.299 112.549,384.433 112.684,384.583 112.000 C 384.647 111.712,384.664 111.441,384.621 111.399 C 384.579 111.357,384.496 111.561,384.438 111.854 M50.208 111.625 C 51.469 111.653,53.531 111.653,54.792 111.625 C 56.052 111.596,55.021 111.573,52.500 111.573 C 49.979 111.573,48.948 111.596,50.208 111.625 M293.833 112.972 C 293.971 113.057,294.271 113.176,294.500 113.238 C 294.790 113.315,294.840 113.302,294.667 113.195 C 294.529 113.110,294.229 112.990,294.000 112.929 C 293.710 112.851,293.660 112.865,293.833 112.972 M271.042 117.083 C 271.044 117.450,271.078 117.580,271.118 117.373 C 271.158 117.166,271.156 116.866,271.115 116.706 C 271.073 116.547,271.040 116.717,271.042 117.083 M8.324 117.292 L 7.750 117.917 8.375 117.342 C 8.957 116.808,9.077 116.667,8.949 116.667 C 8.922 116.667,8.640 116.948,8.324 117.292 M298.718 117.917 C 298.719 118.467,298.750 118.672,298.787 118.372 C 298.825 118.072,298.824 117.622,298.786 117.372 C 298.748 117.122,298.717 117.367,298.718 117.917 M308.381 117.917 C 308.382 118.375,308.415 118.543,308.453 118.289 C 308.491 118.036,308.490 117.661,308.451 117.456 C 308.411 117.251,308.380 117.458,308.381 117.917 M361.333 119.083 C 361.924 119.679,362.445 120.167,362.490 120.167 C 362.536 120.167,362.091 119.679,361.500 119.083 C 360.909 118.487,360.389 118.000,360.343 118.000 C 360.297 118.000,360.743 118.487,361.333 119.083 M116.573 118.875 L 116.083 119.417 116.625 118.927 C 116.923 118.658,117.167 118.414,117.167 118.385 C 117.167 118.257,117.029 118.370,116.573 118.875 M215.345 118.417 C 215.345 118.508,215.452 118.771,215.583 119.000 C 215.714 119.229,215.822 119.342,215.822 119.250 C 215.822 119.158,215.714 118.896,215.583 118.667 C 215.452 118.438,215.345 118.325,215.345 118.417 M246.744 119.208 L 245.917 120.083 246.792 119.256 C 247.273 118.801,247.667 118.408,247.667 118.381 C 247.667 118.257,247.512 118.395,246.744 119.208 M227.167 118.719 C 227.167 118.748,227.410 118.991,227.708 119.260 L 228.250 119.750 227.760 119.208 C 227.304 118.703,227.167 118.590,227.167 118.719 M349.583 119.500 C 349.726 119.775,349.879 120.000,349.925 120.000 C 349.971 120.000,349.892 119.775,349.750 119.500 C 349.608 119.225,349.454 119.000,349.408 119.000 C 349.362 119.000,349.441 119.225,349.583 119.500 M115.573 120.042 L 115.083 120.583 115.625 120.094 C 115.923 119.825,116.167 119.581,116.167 119.552 C 116.167 119.423,116.029 119.537,115.573 120.042 M4.579 121.042 L 3.417 122.250 4.625 121.088 C 5.290 120.449,5.833 119.905,5.833 119.879 C 5.833 119.757,5.658 119.919,4.579 121.042 M330.340 120.217 C 330.326 120.499,330.823 121.268,331.276 121.666 L 331.750 122.082 331.311 121.583 C 331.070 121.308,330.755 120.858,330.610 120.583 C 330.465 120.308,330.344 120.143,330.340 120.217 M113.491 122.125 L 112.917 122.750 113.542 122.176 C 114.123 121.641,114.243 121.500,114.116 121.500 C 114.088 121.500,113.807 121.781,113.491 122.125 M231.500 121.917 C 231.729 122.048,231.992 122.155,232.083 122.155 C 232.175 122.155,232.063 122.048,231.833 121.917 C 231.604 121.786,231.342 121.678,231.250 121.678 C 231.158 121.678,231.271 121.786,231.500 121.917 M307.360 122.590 C 307.081 123.203,307.134 123.334,307.436 122.777 C 307.577 122.517,307.662 122.273,307.623 122.235 C 307.585 122.196,307.467 122.357,307.360 122.590 M286.000 122.639 C 286.137 122.724,286.438 122.843,286.667 122.904 C 286.956 122.982,287.007 122.969,286.833 122.861 C 286.696 122.776,286.396 122.657,286.167 122.596 C 285.877 122.518,285.826 122.531,286.000 122.639 M294.583 122.756 C 294.167 122.957,294.153 122.980,294.500 122.895 C 294.972 122.779,295.503 122.509,295.250 122.513 C 295.158 122.514,294.858 122.623,294.583 122.756 M333.757 122.697 C 334.120 122.761,335.992 122.807,337.917 122.799 C 339.842 122.790,341.229 122.760,341.000 122.731 C 340.111 122.619,333.135 122.587,333.757 122.697 M289.788 123.454 C 290.084 123.490,290.609 123.491,290.955 123.455 C 291.300 123.419,291.058 123.389,290.417 123.388 C 289.775 123.387,289.492 123.417,289.788 123.454 M251.127 126.375 C 251.208 130.522,251.267 130.919,251.300 127.542 C 251.318 125.685,251.277 124.167,251.208 124.166 C 251.140 124.166,251.103 125.160,251.127 126.375 M220.083 125.500 C 220.535 125.958,220.942 126.333,220.987 126.333 C 221.033 126.333,220.701 125.958,220.250 125.500 C 219.799 125.042,219.392 124.667,219.346 124.667 C 219.300 124.667,219.632 125.042,220.083 125.500 M249.578 125.875 L 248.583 126.917 249.625 125.922 C 250.198 125.375,250.667 124.906,250.667 124.880 C 250.667 124.757,250.502 124.907,249.578 125.875 M275.250 126.000 C 275.701 126.458,276.108 126.833,276.154 126.833 C 276.200 126.833,275.868 126.458,275.417 126.000 C 274.965 125.542,274.558 125.167,274.513 125.167 C 274.467 125.167,274.799 125.542,275.250 126.000 M383.406 125.875 L 382.917 126.417 383.458 125.927 C 383.963 125.471,384.077 125.333,383.948 125.333 C 383.919 125.333,383.675 125.577,383.406 125.875 M304.578 126.708 L 303.583 127.750 304.625 126.755 C 305.198 126.208,305.667 125.739,305.667 125.714 C 305.667 125.590,305.502 125.741,304.578 126.708 M354.333 125.885 C 354.333 125.914,354.577 126.158,354.875 126.427 L 355.417 126.917 354.927 126.375 C 354.471 125.870,354.333 125.757,354.333 125.885 M18.742 127.042 L 18.083 127.750 18.792 127.091 C 19.181 126.729,19.500 126.410,19.500 126.383 C 19.500 126.257,19.355 126.383,18.742 127.042 M20.552 127.750 C 20.553 128.300,20.584 128.505,20.621 128.205 C 20.658 127.906,20.657 127.456,20.619 127.205 C 20.581 126.955,20.551 127.200,20.552 127.750 M1.567 130.167 C 1.567 131.587,1.593 132.169,1.624 131.458 C 1.655 130.748,1.655 129.585,1.624 128.875 C 1.593 128.165,1.567 128.746,1.567 130.167 M16.324 129.625 L 15.750 130.250 16.375 129.676 C 16.957 129.141,17.077 129.000,16.949 129.000 C 16.922 129.000,16.640 129.281,16.324 129.625 M243.833 129.750 C 243.604 129.881,243.492 129.988,243.583 129.988 C 243.675 129.988,243.938 129.881,244.167 129.750 C 244.396 129.619,244.508 129.512,244.417 129.512 C 244.325 129.512,244.063 129.619,243.833 129.750 M98.417 130.500 C 98.207 130.590,98.176 130.643,98.333 130.643 C 98.471 130.643,98.733 130.579,98.917 130.500 C 99.127 130.410,99.158 130.357,99.000 130.357 C 98.862 130.357,98.600 130.421,98.417 130.500 M94.917 131.333 C 94.468 131.448,94.459 131.461,94.833 131.464 C 95.063 131.465,95.438 131.407,95.667 131.333 C 96.227 131.154,95.622 131.154,94.917 131.333 M20.709 131.917 C 20.711 132.283,20.745 132.414,20.785 132.206 C 20.824 131.999,20.823 131.699,20.781 131.540 C 20.739 131.380,20.707 131.550,20.709 131.917 M286.875 131.448 C 287.035 131.490,287.298 131.490,287.458 131.448 C 287.619 131.406,287.487 131.372,287.167 131.372 C 286.846 131.372,286.715 131.406,286.875 131.448 M293.627 131.451 C 293.834 131.491,294.134 131.490,294.294 131.448 C 294.453 131.406,294.283 131.374,293.917 131.375 C 293.550 131.377,293.420 131.411,293.627 131.451 M371.542 131.448 C 371.702 131.490,371.965 131.490,372.125 131.448 C 372.285 131.406,372.154 131.372,371.833 131.372 C 371.512 131.372,371.381 131.406,371.542 131.448 M233.460 131.618 C 233.668 131.658,233.968 131.656,234.127 131.615 C 234.286 131.573,234.117 131.540,233.750 131.542 C 233.383 131.544,233.253 131.578,233.460 131.618 M236.208 131.615 C 236.369 131.657,236.631 131.657,236.792 131.615 C 236.952 131.573,236.821 131.539,236.500 131.539 C 236.179 131.539,236.048 131.573,236.208 131.615 M288.627 131.618 C 288.834 131.658,289.134 131.656,289.294 131.615 C 289.453 131.573,289.283 131.540,288.917 131.542 C 288.550 131.544,288.420 131.578,288.627 131.618 M291.794 131.618 C 292.001 131.658,292.301 131.656,292.460 131.615 C 292.620 131.573,292.450 131.540,292.083 131.542 C 291.717 131.544,291.586 131.578,291.794 131.618 M367.127 131.618 C 367.334 131.658,367.634 131.656,367.794 131.615 C 367.953 131.573,367.783 131.540,367.417 131.542 C 367.050 131.544,366.920 131.578,367.127 131.618 M369.875 131.615 C 370.035 131.657,370.298 131.657,370.458 131.615 C 370.619 131.573,370.488 131.539,370.167 131.539 C 369.846 131.539,369.715 131.573,369.875 131.615 M90.960 132.118 C 91.168 132.158,91.468 132.156,91.627 132.115 C 91.786 132.073,91.617 132.040,91.250 132.042 C 90.883 132.044,90.753 132.078,90.960 132.118 M89.627 132.285 C 89.834 132.324,90.134 132.323,90.294 132.281 C 90.453 132.239,90.283 132.207,89.917 132.209 C 89.550 132.211,89.420 132.245,89.627 132.285 M21.208 132.786 C 21.460 132.824,21.873 132.824,22.125 132.786 C 22.377 132.748,22.171 132.717,21.667 132.717 C 21.162 132.717,20.956 132.748,21.208 132.786 M83.208 132.782 C 83.369 132.823,83.631 132.823,83.792 132.782 C 83.952 132.740,83.821 132.705,83.500 132.705 C 83.179 132.705,83.048 132.740,83.208 132.782 M25.467 132.958 C 26.412 132.988,27.912 132.987,28.801 132.957 C 29.689 132.928,28.917 132.903,27.083 132.903 C 25.250 132.904,24.523 132.928,25.467 132.958 M79.797 132.956 C 80.282 132.990,81.032 132.990,81.464 132.956 C 81.896 132.921,81.500 132.894,80.583 132.894 C 79.667 132.895,79.313 132.923,79.797 132.956 M12.906 133.542 L 12.417 134.083 12.958 133.594 C 13.463 133.138,13.577 133.000,13.448 133.000 C 13.419 133.000,13.175 133.244,12.906 133.542 M32.458 133.124 C 33.215 133.155,34.452 133.155,35.208 133.124 C 35.965 133.093,35.346 133.068,33.833 133.068 C 32.321 133.068,31.702 133.093,32.458 133.124 M76.131 133.123 C 76.615 133.157,77.365 133.156,77.797 133.122 C 78.230 133.088,77.833 133.060,76.917 133.061 C 76.000 133.061,75.646 133.089,76.131 133.123 M46.542 133.291 C 47.435 133.321,48.898 133.321,49.792 133.291 C 50.685 133.261,49.954 133.236,48.167 133.236 C 46.379 133.236,45.648 133.261,46.542 133.291 M65.466 133.291 C 66.227 133.322,67.427 133.322,68.133 133.290 C 68.839 133.259,68.217 133.234,66.750 133.234 C 65.283 133.234,64.706 133.260,65.466 133.291 M1.718 141.083 C 1.719 141.633,1.750 141.838,1.787 141.539 C 1.825 141.239,1.824 140.789,1.786 140.539 C 1.748 140.288,1.717 140.533,1.718 141.083 M1.865 145.208 C 1.831 146.414,1.933 146.548,2.433 145.958 L 2.750 145.583 2.383 145.893 L 2.017 146.203 1.957 145.143 L 1.898 144.083 1.865 145.208 M3.073 145.042 L 2.583 145.583 3.125 145.094 C 3.423 144.825,3.667 144.581,3.667 144.552 C 3.667 144.423,3.529 144.537,3.073 145.042 " stroke="none" fill="#a8cc9e" fill-rule="evenodd"></path><path id="path4" d="M58.969 3.291 C 60.372 3.319,62.622 3.319,63.969 3.291 C 65.315 3.263,64.167 3.240,61.417 3.241 C 58.667 3.241,57.565 3.263,58.969 3.291 M79.549 3.291 C 80.264 3.322,81.389 3.322,82.049 3.290 C 82.710 3.259,82.125 3.233,80.750 3.233 C 79.375 3.234,78.835 3.259,79.549 3.291 M31.113 3.458 C 34.704 3.483,40.629 3.483,44.279 3.458 C 47.930 3.433,44.992 3.413,37.750 3.413 C 30.508 3.413,27.522 3.433,31.113 3.458 M86.549 3.457 C 87.171 3.489,88.146 3.489,88.715 3.457 C 89.284 3.424,88.775 3.398,87.583 3.398 C 86.392 3.398,85.926 3.425,86.549 3.457 M90.542 3.615 C 90.702 3.657,90.965 3.657,91.125 3.615 C 91.285 3.573,91.154 3.539,90.833 3.539 C 90.513 3.539,90.381 3.573,90.542 3.615 M22.218 4.429 L 21.750 4.858 22.292 4.481 C 22.590 4.274,22.833 4.081,22.833 4.052 C 22.833 3.920,22.649 4.033,22.218 4.429 M47.375 24.115 C 47.535 24.157,47.798 24.157,47.958 24.115 C 48.119 24.073,47.987 24.039,47.667 24.039 C 47.346 24.039,47.215 24.073,47.375 24.115 M49.958 24.291 C 50.898 24.321,52.435 24.321,53.375 24.291 C 54.315 24.261,53.546 24.237,51.667 24.237 C 49.788 24.237,49.019 24.261,49.958 24.291 M82.958 24.287 C 83.256 24.324,83.744 24.324,84.042 24.287 C 84.340 24.250,84.096 24.220,83.500 24.220 C 82.904 24.220,82.660 24.250,82.958 24.287 M92.000 27.583 C 92.591 28.179,93.111 28.667,93.157 28.667 C 93.203 28.667,92.757 28.179,92.167 27.583 C 91.576 26.988,91.055 26.500,91.010 26.500 C 90.964 26.500,91.409 26.988,92.000 27.583 M45.244 39.750 C 45.244 44.517,45.266 46.443,45.292 44.030 C 45.318 41.617,45.318 37.717,45.292 35.363 C 45.265 33.009,45.244 34.983,45.244 39.750 M95.228 32.958 C 95.274 33.119,95.404 33.569,95.516 33.959 C 95.628 34.350,95.750 34.639,95.787 34.602 C 95.872 34.517,95.337 32.667,95.227 32.667 C 95.181 32.667,95.182 32.798,95.228 32.958 M119.390 33.917 C 119.391 34.650,119.420 34.929,119.456 34.537 C 119.491 34.145,119.490 33.545,119.454 33.204 C 119.419 32.863,119.390 33.183,119.390 33.917 M96.232 39.083 C 96.233 40.367,96.259 40.870,96.291 40.201 C 96.322 39.532,96.322 38.482,96.290 37.868 C 96.258 37.253,96.232 37.800,96.232 39.083 M45.653 52.792 C 45.743 52.952,46.014 53.308,46.255 53.583 C 46.587 53.962,46.562 53.891,46.152 53.292 C 45.616 52.509,45.334 52.226,45.653 52.792 M88.917 52.756 C 88.498 52.958,88.484 52.980,88.833 52.896 C 89.063 52.841,89.321 52.729,89.408 52.648 C 89.624 52.446,89.506 52.472,88.917 52.756 M86.574 53.578 C 86.329 53.763,86.311 53.823,86.500 53.823 C 86.638 53.823,86.896 53.713,87.074 53.578 C 87.318 53.393,87.336 53.333,87.147 53.333 C 87.010 53.333,86.751 53.443,86.574 53.578 M82.294 54.451 C 82.501 54.491,82.801 54.490,82.960 54.448 C 83.120 54.406,82.950 54.374,82.583 54.375 C 82.217 54.377,82.086 54.411,82.294 54.451 M56.458 54.625 C 61.065 54.650,68.602 54.650,73.208 54.625 C 77.815 54.600,74.046 54.580,64.833 54.580 C 55.621 54.580,51.852 54.600,56.458 54.625 M114.063 56.742 C 113.937 57.071,114.126 57.337,114.468 57.314 C 114.707 57.298,114.703 57.283,114.443 57.215 C 114.237 57.162,114.163 57.032,114.219 56.818 C 114.316 56.446,114.199 56.389,114.063 56.742 M117.500 58.000 L 116.583 58.112 117.448 58.140 C 117.924 58.154,118.360 58.092,118.417 58.000 C 118.473 57.908,118.496 57.846,118.468 57.860 C 118.440 57.875,118.004 57.938,117.500 58.000 M113.711 58.286 C 113.964 58.325,114.339 58.324,114.544 58.284 C 114.749 58.244,114.542 58.213,114.083 58.214 C 113.625 58.216,113.457 58.248,113.711 58.286 M111.627 58.451 C 111.834 58.491,112.134 58.490,112.294 58.448 C 112.453 58.406,112.283 58.374,111.917 58.375 C 111.550 58.377,111.420 58.411,111.627 58.451 M109.960 58.618 C 110.168 58.658,110.468 58.656,110.627 58.615 C 110.786 58.573,110.617 58.540,110.250 58.542 C 109.883 58.544,109.753 58.578,109.960 58.618 M103.794 59.285 C 104.001 59.324,104.301 59.323,104.460 59.281 C 104.620 59.239,104.450 59.207,104.083 59.209 C 103.717 59.211,103.586 59.245,103.794 59.285 M85.917 62.500 C 85.707 62.590,85.676 62.643,85.833 62.643 C 85.971 62.643,86.233 62.579,86.417 62.500 C 86.627 62.410,86.658 62.357,86.500 62.357 C 86.362 62.357,86.100 62.421,85.917 62.500 M114.250 67.333 C 114.794 67.883,115.277 68.333,115.323 68.333 C 115.369 68.333,114.961 67.883,114.417 67.333 C 113.872 66.783,113.390 66.333,113.344 66.333 C 113.298 66.333,113.706 66.783,114.250 67.333 M125.000 69.719 C 125.000 69.748,125.244 69.991,125.542 70.260 L 126.083 70.750 125.594 70.208 C 125.138 69.703,125.000 69.590,125.000 69.719 M81.965 75.957 C 82.541 75.990,83.441 75.989,83.965 75.956 C 84.488 75.923,84.017 75.897,82.917 75.897 C 81.817 75.897,81.388 75.924,81.965 75.957 M148.573 76.375 L 148.083 76.917 148.625 76.427 C 148.923 76.158,149.167 75.914,149.167 75.885 C 149.167 75.757,149.029 75.870,148.573 76.375 M85.208 76.115 C 85.369 76.157,85.631 76.157,85.792 76.115 C 85.952 76.073,85.821 76.039,85.500 76.039 C 85.179 76.039,85.048 76.073,85.208 76.115 M143.958 78.118 C 144.165 78.157,144.502 78.157,144.708 78.118 C 144.915 78.078,144.746 78.045,144.333 78.045 C 143.921 78.045,143.752 78.078,143.958 78.118 M94.417 80.667 C 94.868 81.125,95.275 81.500,95.321 81.500 C 95.367 81.500,95.035 81.125,94.583 80.667 C 94.132 80.208,93.725 79.833,93.679 79.833 C 93.633 79.833,93.965 80.208,94.417 80.667 M128.917 82.667 C 129.275 83.033,129.605 83.333,129.651 83.333 C 129.697 83.333,129.441 83.033,129.083 82.667 C 128.725 82.300,128.395 82.000,128.349 82.000 C 128.303 82.000,128.559 82.300,128.917 82.667 M184.292 83.623 C 184.773 83.657,185.560 83.657,186.042 83.623 C 186.523 83.589,186.129 83.562,185.167 83.562 C 184.204 83.562,183.810 83.589,184.292 83.623 M234.381 83.623 C 234.912 83.657,235.737 83.656,236.214 83.623 C 236.692 83.589,236.258 83.562,235.250 83.562 C 234.242 83.563,233.851 83.590,234.381 83.623 M288.875 83.623 C 289.402 83.656,290.265 83.656,290.792 83.623 C 291.319 83.590,290.887 83.563,289.833 83.563 C 288.779 83.563,288.348 83.590,288.875 83.623 M368.125 83.623 C 368.606 83.657,369.394 83.657,369.875 83.623 C 370.356 83.589,369.962 83.562,369.000 83.562 C 368.037 83.562,367.644 83.589,368.125 83.623 M292.375 83.782 C 292.535 83.823,292.798 83.823,292.958 83.782 C 293.119 83.740,292.987 83.705,292.667 83.705 C 292.346 83.705,292.215 83.740,292.375 83.782 M148.959 107.506 L 149.002 130.662 144.209 130.710 L 139.417 130.758 144.250 130.754 L 149.083 130.750 149.126 107.676 C 149.149 94.985,149.111 84.545,149.042 84.476 C 148.973 84.406,148.936 94.770,148.959 107.506 M171.133 86.932 C 171.183 89.486,171.251 89.766,171.688 89.208 C 171.895 88.944,171.889 88.938,171.625 89.145 C 171.350 89.361,171.333 89.235,171.333 86.947 C 171.333 85.612,171.277 84.485,171.208 84.442 C 171.140 84.399,171.106 85.520,171.133 86.932 M385.070 87.500 C 385.070 89.287,385.094 90.019,385.124 89.125 C 385.154 88.231,385.154 86.769,385.124 85.875 C 385.094 84.981,385.070 85.712,385.070 87.500 M394.708 107.542 L 394.667 130.667 389.920 130.667 L 385.174 130.667 385.123 127.542 L 385.073 124.417 385.078 127.583 L 385.083 130.750 389.879 130.794 C 393.626 130.829,394.693 130.792,394.755 130.628 C 394.800 130.512,394.816 120.067,394.792 107.417 L 394.749 84.417 394.708 107.542 M124.205 88.333 C 124.205 88.654,124.240 88.785,124.282 88.625 C 124.323 88.465,124.323 88.202,124.282 88.042 C 124.240 87.881,124.205 88.013,124.205 88.333 M124.372 89.500 C 124.372 89.821,124.406 89.952,124.448 89.792 C 124.490 89.631,124.490 89.369,124.448 89.208 C 124.406 89.048,124.372 89.179,124.372 89.500 M353.073 90.375 L 352.583 90.917 353.125 90.427 C 353.630 89.971,353.743 89.833,353.615 89.833 C 353.586 89.833,353.342 90.077,353.073 90.375 M99.042 92.083 C 99.044 92.450,99.078 92.580,99.118 92.373 C 99.158 92.166,99.156 91.866,99.115 91.706 C 99.073 91.547,99.040 91.717,99.042 92.083 M288.961 91.621 C 289.261 91.658,289.711 91.657,289.961 91.619 C 290.212 91.581,289.967 91.551,289.417 91.552 C 288.867 91.553,288.662 91.584,288.961 91.621 M287.042 91.782 C 287.202 91.823,287.465 91.823,287.625 91.782 C 287.785 91.740,287.654 91.705,287.333 91.705 C 287.012 91.705,286.881 91.740,287.042 91.782 M182.288 91.954 C 182.584 91.990,183.109 91.991,183.455 91.955 C 183.800 91.919,183.558 91.889,182.917 91.888 C 182.275 91.887,181.992 91.917,182.288 91.954 M236.621 91.954 C 236.917 91.990,237.442 91.991,237.788 91.955 C 238.134 91.919,237.892 91.889,237.250 91.888 C 236.608 91.887,236.325 91.917,236.621 91.954 M370.458 91.954 C 370.756 91.991,371.244 91.991,371.542 91.954 C 371.840 91.917,371.596 91.887,371.000 91.887 C 370.404 91.887,370.160 91.917,370.458 91.954 M227.411 95.875 L 226.417 96.917 227.458 95.922 C 228.426 94.998,228.576 94.833,228.453 94.833 C 228.427 94.833,227.959 95.302,227.411 95.875 M99.039 96.000 C 99.039 96.321,99.073 96.452,99.115 96.292 C 99.157 96.131,99.157 95.869,99.115 95.708 C 99.073 95.548,99.039 95.679,99.039 96.000 M271.888 97.083 C 271.889 97.725,271.919 97.967,271.955 97.621 C 271.991 97.275,271.990 96.750,271.954 96.455 C 271.917 96.159,271.887 96.442,271.888 97.083 M281.545 96.833 C 281.545 97.246,281.578 97.415,281.618 97.208 C 281.657 97.002,281.657 96.665,281.618 96.458 C 281.578 96.252,281.545 96.421,281.545 96.833 M307.539 97.500 C 307.539 97.821,307.573 97.952,307.615 97.792 C 307.657 97.631,307.657 97.369,307.615 97.208 C 307.573 97.048,307.539 97.179,307.539 97.500 M124.375 98.917 C 124.377 99.283,124.411 99.414,124.451 99.206 C 124.491 98.999,124.490 98.699,124.448 98.540 C 124.406 98.380,124.374 98.550,124.375 98.917 M46.409 99.682 C 46.262 99.966,46.172 100.227,46.208 100.263 C 46.244 100.300,46.398 100.068,46.551 99.748 C 46.894 99.029,46.775 98.974,46.409 99.682 M124.212 100.500 C 124.212 100.912,124.245 101.081,124.284 100.875 C 124.324 100.669,124.324 100.331,124.284 100.125 C 124.245 99.919,124.212 100.087,124.212 100.500 M204.042 101.917 C 204.044 102.283,204.078 102.414,204.118 102.206 C 204.158 101.999,204.156 101.699,204.115 101.540 C 204.073 101.380,204.040 101.550,204.042 101.917 M171.207 117.039 L 171.167 130.662 166.375 130.708 L 161.583 130.755 166.380 130.794 C 170.093 130.825,171.195 130.786,171.257 130.625 C 171.300 130.510,171.316 124.342,171.292 116.917 L 171.248 103.417 171.207 117.039 M194.582 117.167 L 194.583 130.750 199.417 130.754 L 204.250 130.758 199.459 130.710 L 194.669 130.662 194.625 117.122 L 194.580 103.583 194.582 117.167 M45.218 104.583 C 45.219 105.133,45.250 105.338,45.287 105.039 C 45.325 104.739,45.324 104.289,45.286 104.039 C 45.248 103.788,45.217 104.033,45.218 104.583 M123.429 104.429 C 123.367 104.673,123.349 104.905,123.389 104.944 C 123.428 104.983,123.510 104.816,123.571 104.571 C 123.633 104.327,123.651 104.095,123.611 104.056 C 123.572 104.017,123.490 104.184,123.429 104.429 M347.067 107.333 C 347.067 108.754,347.093 109.335,347.124 108.625 C 347.155 107.915,347.155 106.752,347.124 106.042 C 347.093 105.331,347.067 105.912,347.067 107.333 M356.897 107.417 C 356.897 108.517,356.924 108.945,356.957 108.368 C 356.990 107.792,356.989 106.892,356.956 106.368 C 356.923 105.845,356.897 106.317,356.897 107.417 M385.058 107.500 C 385.058 108.279,385.087 108.598,385.122 108.208 C 385.157 107.819,385.157 107.181,385.122 106.792 C 385.087 106.402,385.058 106.721,385.058 107.500 M223.053 107.333 C 223.053 107.929,223.084 108.173,223.121 107.875 C 223.158 107.577,223.158 107.090,223.121 106.792 C 223.084 106.494,223.053 106.737,223.053 107.333 M73.867 111.457 C 74.664 111.488,76.014 111.488,76.867 111.458 C 77.719 111.427,77.067 111.402,75.417 111.402 C 73.767 111.402,73.069 111.427,73.867 111.457 M47.979 111.713 C 48.051 111.784,49.266 111.821,50.679 111.796 L 53.250 111.749 50.550 111.666 C 49.064 111.621,47.908 111.642,47.979 111.713 M59.552 111.625 C 61.002 111.653,63.327 111.652,64.719 111.625 C 66.111 111.597,64.925 111.574,62.083 111.574 C 59.242 111.574,58.103 111.597,59.552 111.625 M276.030 116.624 C 280.260 116.665,280.988 116.708,281.055 116.922 C 281.108 117.094,281.124 117.080,281.106 116.878 C 281.081 116.603,280.739 116.583,276.081 116.579 L 271.083 116.576 276.030 116.624 M308.224 117.917 C 308.224 118.650,308.254 118.929,308.289 118.537 C 308.324 118.145,308.324 117.545,308.288 117.204 C 308.252 116.863,308.223 117.183,308.224 117.917 M216.083 119.833 C 216.226 120.108,216.379 120.333,216.425 120.333 C 216.471 120.333,216.392 120.108,216.250 119.833 C 216.108 119.558,215.954 119.333,215.908 119.333 C 215.862 119.333,215.941 119.558,216.083 119.833 M283.000 120.750 C 283.311 121.071,283.603 121.333,283.649 121.333 C 283.695 121.333,283.478 121.071,283.167 120.750 C 282.856 120.429,282.564 120.167,282.518 120.167 C 282.472 120.167,282.689 120.429,283.000 120.750 M292.083 123.333 L 291.417 123.453 292.000 123.460 C 292.321 123.464,292.771 123.407,293.000 123.333 C 293.536 123.162,293.041 123.162,292.083 123.333 M219.000 124.219 C 219.000 124.248,219.244 124.491,219.542 124.760 L 220.083 125.250 219.594 124.708 C 219.138 124.203,219.000 124.090,219.000 124.219 M353.333 124.885 C 353.333 124.914,353.577 125.158,353.875 125.427 L 354.417 125.917 353.927 125.375 C 353.471 124.870,353.333 124.757,353.333 124.885 M383.409 125.708 L 382.750 126.417 383.458 125.758 C 384.117 125.145,384.243 125.000,384.117 125.000 C 384.090 125.000,383.771 125.319,383.409 125.708 M20.723 130.167 C 20.723 130.854,20.752 131.135,20.788 130.792 C 20.824 130.448,20.824 129.885,20.788 129.542 C 20.752 129.198,20.723 129.479,20.723 130.167 M330.542 130.615 C 330.702 130.657,330.965 130.657,331.125 130.615 C 331.285 130.573,331.154 130.539,330.833 130.539 C 330.512 130.539,330.381 130.573,330.542 130.615 M253.708 130.791 C 255.060 130.819,257.273 130.819,258.625 130.791 C 259.977 130.763,258.871 130.740,256.167 130.740 C 253.463 130.740,252.356 130.763,253.708 130.791 M333.969 130.791 C 335.372 130.819,337.622 130.819,338.969 130.791 C 340.315 130.763,339.167 130.740,336.417 130.741 C 333.667 130.741,332.565 130.763,333.969 130.791 M232.711 131.453 C 232.964 131.491,233.339 131.490,233.544 131.451 C 233.749 131.411,233.542 131.380,233.083 131.381 C 232.625 131.382,232.457 131.415,232.711 131.453 M236.544 131.453 C 236.797 131.491,237.172 131.490,237.377 131.451 C 237.582 131.411,237.375 131.380,236.917 131.381 C 236.458 131.382,236.291 131.415,236.544 131.453 M288.044 131.453 C 288.297 131.491,288.672 131.490,288.877 131.451 C 289.082 131.411,288.875 131.380,288.417 131.381 C 287.958 131.382,287.791 131.415,288.044 131.453 M292.211 131.453 C 292.464 131.491,292.839 131.490,293.044 131.451 C 293.249 131.411,293.042 131.380,292.583 131.381 C 292.125 131.382,291.957 131.415,292.211 131.453 M366.544 131.453 C 366.797 131.491,367.172 131.490,367.377 131.451 C 367.582 131.411,367.375 131.380,366.917 131.381 C 366.458 131.382,366.291 131.415,366.544 131.453 M370.292 131.451 C 370.498 131.491,370.835 131.491,371.042 131.451 C 371.248 131.411,371.079 131.379,370.667 131.379 C 370.254 131.379,370.085 131.411,370.292 131.451 M234.708 131.619 C 234.960 131.658,235.373 131.658,235.625 131.619 C 235.877 131.581,235.671 131.550,235.167 131.550 C 234.662 131.550,234.456 131.581,234.708 131.619 M289.958 131.621 C 290.256 131.658,290.744 131.658,291.042 131.621 C 291.340 131.584,291.096 131.553,290.500 131.553 C 289.904 131.553,289.660 131.584,289.958 131.621 M368.375 131.619 C 368.627 131.658,369.040 131.658,369.292 131.619 C 369.544 131.581,369.337 131.550,368.833 131.550 C 368.329 131.550,368.123 131.581,368.375 131.619 M20.872 132.167 C 20.872 132.487,20.906 132.619,20.948 132.458 C 20.990 132.298,20.990 132.035,20.948 131.875 C 20.906 131.715,20.872 131.846,20.872 132.167 M88.542 132.282 C 88.702 132.323,88.965 132.323,89.125 132.282 C 89.285 132.240,89.154 132.205,88.833 132.205 C 88.513 132.205,88.381 132.240,88.542 132.282 M87.125 132.451 C 87.331 132.491,87.669 132.491,87.875 132.451 C 88.081 132.411,87.912 132.379,87.500 132.379 C 87.087 132.379,86.919 132.411,87.125 132.451 M22.961 132.787 C 23.261 132.825,23.711 132.824,23.961 132.786 C 24.212 132.748,23.967 132.717,23.417 132.718 C 22.867 132.719,22.662 132.750,22.961 132.787 M82.127 132.785 C 82.334 132.824,82.634 132.823,82.794 132.781 C 82.953 132.739,82.783 132.707,82.417 132.709 C 82.050 132.711,81.920 132.745,82.127 132.785 M31.298 132.957 C 31.875 132.990,32.775 132.989,33.298 132.956 C 33.822 132.923,33.350 132.897,32.250 132.897 C 31.150 132.897,30.722 132.924,31.298 132.957 M77.129 132.956 C 77.521 132.991,78.121 132.990,78.463 132.954 C 78.804 132.919,78.483 132.890,77.750 132.890 C 77.017 132.891,76.737 132.920,77.129 132.956 M39.052 133.125 C 40.502 133.153,42.827 133.152,44.219 133.125 C 45.611 133.097,44.425 133.074,41.583 133.074 C 38.742 133.074,37.603 133.097,39.052 133.125 M70.042 133.124 C 71.027 133.154,72.640 133.154,73.625 133.124 C 74.610 133.095,73.804 133.071,71.833 133.071 C 69.862 133.071,69.056 133.095,70.042 133.124 M54.447 133.291 C 56.206 133.318,59.131 133.318,60.947 133.291 C 62.764 133.265,61.325 133.242,57.750 133.242 C 54.175 133.242,52.689 133.264,54.447 133.291 " stroke="none" fill="#94bc8c" fill-rule="evenodd"></path></g></svg>