<?xml version='1.0' encoding='iso-8859-1'?>
<svg version="1.1" xmlns="http://www.w3.org/2000/svg" viewBox="0 0 511 511" xmlns:xlink="http://www.w3.org/1999/xlink" enable-background="new 0 0 511 511">
  <g>
    <path d="m487.5,16h-464c-12.958,0-23.5,10.542-23.5,23.5v432c0,12.958 10.542,23.5 23.5,23.5h464c12.958,0 23.5-10.542 23.5-23.5v-432c0-12.958-10.542-23.5-23.5-23.5zm-464,15h464c4.687,0 8.5,3.813 8.5,8.5v40.5h-481v-40.5c0-4.687 3.813-8.5 8.5-8.5zm464,449h-464c-4.687,0-8.5-3.813-8.5-8.5v-376.5h481v376.5c0,4.687-3.813,8.5-8.5,8.5z"/>
    <path d="m39.5,63c1.97,0 3.91-0.8 5.3-2.2 1.4-1.39 2.2-3.33 2.2-5.3 0-1.97-0.8-3.91-2.2-5.3-1.39-1.4-3.32-2.2-5.3-2.2-1.97,0-3.91,0.8-5.3,2.2-1.4,1.39-2.2,3.33-2.2,5.3 0,1.97 0.8,3.91 2.2,5.3 1.39,1.399 3.33,2.2 5.3,2.2z"/>
    <path d="m63.5,63c1.97,0 3.91-0.8 5.3-2.2 1.4-1.39 2.2-3.33 2.2-5.3 0-1.97-0.8-3.91-2.2-5.3-1.39-1.4-3.32-2.2-5.3-2.2-1.97,0-3.91,0.8-5.3,2.2-1.4,1.39-2.2,3.33-2.2,5.3 0,1.97 0.8,3.91 2.2,5.3 1.39,1.399 3.33,2.2 5.3,2.2z"/>
    <path d="m87.5,63c1.97,0 3.91-0.8 5.3-2.2 1.4-1.39 2.2-3.33 2.2-5.3 0-1.97-0.8-3.91-2.2-5.3-1.39-1.4-3.32-2.2-5.3-2.2-1.97,0-3.91,0.8-5.3,2.2-1.4,1.39-2.2,3.33-2.2,5.3 0,1.97 0.8,3.91 2.2,5.3 1.39,1.399 3.33,2.2 5.3,2.2z"/>
    <path d="m215,271.5c0-12.958-10.542-23.5-23.5-23.5-10.336,0-19.128,6.71-22.266,16h-43.469c-1.096-3.244-2.879-6.171-5.179-8.609l11.051-16.577c1.064,0.11 2.135,0.186 3.218,0.186h48.645c17.369,0 31.5-14.131 31.5-31.5v-56c0-4.142-3.358-7.5-7.5-7.5h-123.477l-3.64-7.148c-2.556-5.383-8.033-8.852-14.002-8.852h-10.881c-4.142,0-7.5,3.358-7.5,7.5s3.358,7.5 7.5,7.5h10.881c0.194,0 0.373,0.114 0.454,0.29 0.041,0.088 0.083,0.175 0.127,0.261l39.358,77.289c2.438,5.214 6.23,9.539 10.828,12.668l-9.867,14.8c-1.232-0.2-2.494-0.308-3.781-0.308-12.958,0-23.5,10.542-23.5,23.5s10.542,23.5 23.5,23.5c10.336,0 19.128-6.71 22.266-16h43.469c3.138,9.29 11.93,16 22.266,16 12.957,0 23.499-10.542 23.499-23.5zm-123.338-112.5h108.338v48.5c0,9.098-7.402,16.5-16.5,16.5h-48.644c-6.413,0-12.294-3.763-14.981-9.586-0.041-0.087-0.083-0.174-0.126-0.26l-28.087-55.154zm11.838,121c-4.687,0-8.5-3.813-8.5-8.5s3.813-8.5 8.5-8.5 8.5,3.813 8.5,8.5-3.813,8.5-8.5,8.5zm88,0c-4.687,0-8.5-3.813-8.5-8.5s3.813-8.5 8.5-8.5 8.5,3.813 8.5,8.5-3.813,8.5-8.5,8.5z"/>
    <path d="m303.5,320h-96c-8.547,0-15.5,6.953-15.5,15.5v48c0,8.547 6.953,15.5 15.5,15.5h96c8.547,0 15.5-6.953 15.5-15.5v-48c0-8.547-6.953-15.5-15.5-15.5zm.5,63.5c0,0.276-0.224,0.5-0.5,0.5h-96c-0.276,0-0.5-0.224-0.5-0.5v-48c0-0.276 0.224-0.5 0.5-0.5h96c0.276,0 0.5,0.224 0.5,0.5v48z"/>
    <path d="m159.5,320h-96c-8.547,0-15.5,6.953-15.5,15.5v48c0,8.547 6.953,15.5 15.5,15.5h96c8.547,0 15.5-6.953 15.5-15.5v-48c0-8.547-6.953-15.5-15.5-15.5zm.5,63.5c0,0.276-0.224,0.5-0.5,0.5h-96c-0.276,0-0.5-0.224-0.5-0.5v-48c0-0.276 0.224-0.5 0.5-0.5h96c0.276,0 0.5,0.224 0.5,0.5v48z"/>
    <path d="m447.5,320h-96c-8.547,0-15.5,6.953-15.5,15.5v48c0,8.547 6.953,15.5 15.5,15.5h96c8.547,0 15.5-6.953 15.5-15.5v-48c0-8.547-6.953-15.5-15.5-15.5zm.5,63.5c0,0.276-0.224,0.5-0.5,0.5h-96c-0.276,0-0.5-0.224-0.5-0.5v-48c0-0.276 0.224-0.5 0.5-0.5h96c0.276,0 0.5,0.224 0.5,0.5v48z"/>
    <path d="m167.5,416h-112c-4.142,0-7.5,3.358-7.5,7.5s3.358,7.5 7.5,7.5h112c4.142,0 7.5-3.358 7.5-7.5s-3.358-7.5-7.5-7.5z"/>
    <path d="m311.5,416h-112c-4.142,0-7.5,3.358-7.5,7.5s3.358,7.5 7.5,7.5h112c4.142,0 7.5-3.358 7.5-7.5s-3.358-7.5-7.5-7.5z"/>
    <path d="m455.5,416h-112c-4.142,0-7.5,3.358-7.5,7.5s3.358,7.5 7.5,7.5h112c4.142,0 7.5-3.358 7.5-7.5s-3.358-7.5-7.5-7.5z"/>
    <path d="m399.5,448h-56c-4.142,0-7.5,3.358-7.5,7.5s3.358,7.5 7.5,7.5h56c4.142,0 7.5-3.358 7.5-7.5s-3.358-7.5-7.5-7.5z"/>
    <path d="m255.5,448h-56c-4.142,0-7.5,3.358-7.5,7.5s3.358,7.5 7.5,7.5h56c4.142,0 7.5-3.358 7.5-7.5s-3.358-7.5-7.5-7.5z"/>
    <path d="m111.5,448h-56c-4.142,0-7.5,3.358-7.5,7.5s3.358,7.5 7.5,7.5h56c4.142,0 7.5-3.358 7.5-7.5s-3.358-7.5-7.5-7.5z"/>
    <path d="m263.5,143h72c4.142,0 7.5-3.358 7.5-7.5s-3.358-7.5-7.5-7.5h-72c-4.142,0-7.5,3.358-7.5,7.5s3.358,7.5 7.5,7.5z"/>
    <path d="m455.5,160h-192c-4.142,0-7.5,3.358-7.5,7.5s3.358,7.5 7.5,7.5h192c4.142,0 7.5-3.358 7.5-7.5s-3.358-7.5-7.5-7.5z"/>
    <path d="m455.5,208h-152c-4.142,0-7.5,3.358-7.5,7.5s3.358,7.5 7.5,7.5h152c4.142,0 7.5-3.358 7.5-7.5s-3.358-7.5-7.5-7.5z"/>
    <path d="m455.5,240h-152c-4.142,0-7.5,3.358-7.5,7.5s3.358,7.5 7.5,7.5h152c4.142,0 7.5-3.358 7.5-7.5s-3.358-7.5-7.5-7.5z"/>
    <path d="m455.5,272h-152c-4.142,0-7.5,3.358-7.5,7.5s3.358,7.5 7.5,7.5h152c4.142,0 7.5-3.358 7.5-7.5s-3.358-7.5-7.5-7.5z"/>
    <path d="m263.5,223h8c4.142,0 7.5-3.358 7.5-7.5s-3.358-7.5-7.5-7.5h-8c-4.142,0-7.5,3.358-7.5,7.5s3.358,7.5 7.5,7.5z"/>
    <path d="m263.5,255h8c4.142,0 7.5-3.358 7.5-7.5s-3.358-7.5-7.5-7.5h-8c-4.142,0-7.5,3.358-7.5,7.5s3.358,7.5 7.5,7.5z"/>
    <path d="m263.5,287h8c4.142,0 7.5-3.358 7.5-7.5s-3.358-7.5-7.5-7.5h-8c-4.142,0-7.5,3.358-7.5,7.5s3.358,7.5 7.5,7.5z"/>
  </g>
</svg>
